<?xml version="1.0" encoding="utf-8"?>
<!-- Generator: Adobe Illustrator 24.0.2, SVG Export Plug-In . SVG Version: 6.00 Build 0)  -->
<svg version="1.1" id="Capa_1" xmlns="http://www.w3.org/2000/svg" xmlns:xlink="http://www.w3.org/1999/xlink" x="0px" y="0px"
	 viewBox="0 0 2789.95 2231.96" style="enable-background:new 0 0 2789.95 2231.96;" xml:space="preserve">
<style type="text/css">
	.st0{fill:#E07390;}
	.st1{fill:#CB8A60;}
	.st2{fill:#FF7BB1;}
	.st3{fill:#B76C4D;}
	.st4{fill:#FF5FAF;}
	.st5{fill:#28200D;}
	.st6{fill:#FFF6F0;}
	.st7{fill:#FFB3A5;}
	.st8{fill:#8D4B35;}
	.st9{fill:#FFAFA4;}
	.st10{fill:#FF8685;}
	.st11{fill:#DDAA75;}
	.st12{fill:#FFFFFF;}
	.st13{fill:#FFCFE9;}
	.st14{fill:#AF3F37;}
	.st15{fill:#FFF755;}
	.st16{fill:#400705;}
	.st17{fill:#DFB28F;}
	.st18{fill:#D39D79;}
	.st19{fill:#B35B3D;}
	.st20{fill:none;}
</style>
<g>
	<g>
		<g>
			<path class="st0" d="M2271.35,1334.21c30.71-43.31,62.54-88.08,62.54-142.72c0-54.61-31.8-99.38-62.54-142.66
				c-19.98-28.18-38.89-54.77-45.63-79.93c-7.15-26.76-3.94-61.81-0.9-95.7c4.83-52.03,9.72-105.76-16.61-151.19
				c-26.69-46.14-76.07-68.79-123.87-90.72c-32-14.69-62.23-28.56-81.28-47.63c-19.09-19.08-32.95-49.3-47.64-81.32
				c-21.95-47.79-44.66-97.2-90.78-123.88c-23.99-13.9-52.48-20.35-89.65-20.35c-20.32,0-41.04,1.88-61.07,3.71
				c-19.11,1.74-38.51,3.51-56.28,3.51c-15.86,0-28.91-1.42-39.87-4.36c-25.07-6.71-51.7-25.59-79.79-45.57
				c-43.34-30.8-88.13-62.59-142.73-62.59c-54.65,0-99.41,31.79-142.72,62.59c-28.17,19.98-54.74,38.86-79.84,45.57
				c-10.99,2.94-24.01,4.36-39.86,4.36c-17.8,0-37.19-1.77-55.95-3.49c-20.14-1.82-40.93-3.73-61.41-3.73
				c-37.16,0-65.67,6.45-89.73,20.35c-46.12,26.71-68.82,76.11-90.69,123.88c-14.72,32.02-28.56,62.25-47.62,81.3
				c-19.12,19.1-49.36,32.97-81.37,47.66c-47.77,21.94-97.17,44.58-123.86,90.72c-26.3,45.43-21.37,99.16-16.63,151.11
				c3.1,33.93,6.32,69-0.86,95.78c-6.72,25.13-25.59,51.73-45.6,79.88c-30.75,43.27-62.56,88.07-62.56,142.71
				c0,54.61,31.8,99.39,62.55,142.69c20.02,28.2,38.9,54.77,45.61,79.84c7.18,26.84,3.96,61.92,0.86,95.82
				c-4.74,51.97-9.67,105.68,16.63,151.11c26.69,46.16,76.09,68.81,123.86,90.72c32.06,14.72,62.27,28.58,81.32,47.64
				c19.1,19.1,32.94,49.32,47.62,81.35c21.91,47.8,44.62,97.2,90.73,123.88c24.06,13.9,52.57,20.38,89.73,20.38
				c20.48,0,41.27-1.93,61.41-3.76c18.77-1.72,38.23-3.52,55.95-3.52c15.85,0,28.88,1.45,39.85,4.39
				c25.13,6.7,51.71,25.59,79.84,45.56c43.33,30.8,88.08,62.63,142.73,62.63c54.61,0,99.41-31.86,142.69-62.63
				c28.14-20,54.71-38.86,79.83-45.59c10.97-2.95,24.01-4.36,39.85-4.36c17.74,0,37.12,1.8,55.94,3.52
				c20.16,1.83,40.96,3.76,61.4,3.76c37.17,0,65.69-6.48,89.68-20.38c46.12-26.68,68.82-76.08,90.72-123.85
				c14.72-32.02,28.58-62.25,47.7-81.37c19.06-19.02,49.24-32.89,81.21-47.58c47.88-21.97,97.26-44.62,123.95-90.78
				c26.33-45.45,21.37-99.17,16.61-151.11c-3.07-33.9-6.24-68.97,0.9-95.82C2232.44,1388.92,2251.31,1362.35,2271.35,1334.21z"/>
		</g>
	</g>
	<g>
		<g>
			<path class="st1" d="M932.56,1635.65c15.65,8.39,80.31-117.15,83.43-152.33c0.28-3.18,12.76-4.35,13.58-6.77
				c0.52-1.53,12.76-11.94,13.29-13.2c-30.41-22.09-60.1-52.95-86.82-79.48c-5.62,6.1-21.1,26.63-21.12,26.48
				c-0.88-8-150.75,68.18-143.4,82.82C806.42,1522.81,872.83,1603.64,932.56,1635.65z"/>
		</g>
		<g>
			<path class="st2" d="M936.88,1407.86c12.84,16.41,28.79,31.09,44.13,44.62c12.22,10.78,25.69,19.8,39.8,27.74
				c3.71-1.24,8.28-2.23,8.76-3.67c0.52-1.53,12.76-11.93,13.29-13.2c-30.41-22.09-60.11-52.95-86.82-79.48
				C951.64,1388.65,941.21,1402.25,936.88,1407.86z"/>
		</g>
		<g>
			<path class="st3" d="M965.53,1438.01c-10.31-9.15-20.48-18.47-29.95-28.47c-0.42,0.54-0.66,0.83-0.66,0.81
				c-0.88-8-150.75,68.18-143.4,82.82c6.42,12.78,22.44,35.09,43.35,58.89c1.61-3.43,3.44-6.77,5.48-9.99
				c16.57-26.05,43.15-44.86,69.62-59.83c22.01-12.45,45.31-22.68,69.05-31.42C974.42,1446.54,970.03,1442,965.53,1438.01z"/>
		</g>
		<g>
			<path class="st4" d="M936.77,1408c14.62,14.12,29.84,27.66,46.16,39.73c0.29-0.51,0.62-1,1.02-1.43
				c5.75-6.15,12.59-11.19,19.42-16.1c-16.44-15.28-32.36-31.47-47.32-46.33C951.6,1388.7,941.03,1402.49,936.77,1408z"/>
		</g>
		<g>
			<path class="st5" d="M1032.96,1458.41c-2.16,2.2-4.31,4.39-6.47,6.59c-1.84,1.87-3.72,4.63-6.11,5.7
				c1.35-0.36,2.69-0.73,4.04-1.09c-1.1-0.11-3.95-2.25-5.16-2.9c-2.12-1.13-4.23-2.3-6.31-3.5c-4.4-2.54-8.7-5.24-12.9-8.09
				c-8.07-5.47-15.7-11.53-22.88-18.12c-7.09-6.5-13.74-13.48-19.88-20.89c-1.61-1.94-3.19-3.91-4.72-5.92
				c-0.64-0.85-1.3-1.7-1.91-2.57c-0.25-0.36-0.5-0.71-0.75-1.07c-0.81-1.32-0.9-1.49-0.28-0.52c0.27,0.82,0.56,0.8,0.85-0.07
				c0.33-0.48,0.66-0.95,1.01-1.41c0.9-1.25,1.81-2.49,2.72-3.73c1.81-2.49,3.62-4.97,5.44-7.46c2.55-3.5,0.59-8.93-2.87-10.95
				c-4.05-2.37-8.4-0.63-10.95,2.87c-4.23,5.8-11.47,12.74-12.09,20.2c-0.6,7.28,5,12.91,9.21,18.23
				c8.62,10.9,18.33,20.94,28.92,29.93c10.7,9.09,22.2,17.27,34.41,24.2c5.41,3.07,13.76,9.29,20.29,7.5c3.64-1,6.13-3.78,8.67-6.37
				c3.02-3.07,6.04-6.15,9.06-9.22C1051.5,1462.37,1040.19,1451.04,1032.96,1458.41L1032.96,1458.41z"/>
		</g>
		<g>
			<path class="st5" d="M1006.78,1478.4c-9.82,32.13-22.84,63.12-39.1,92.53c-8.18,14.8-17.13,29.18-26.81,43.05
				c-3.24,4.64-7.42,12.77-14.13,10.94c-3.48-0.95-6.73-3.95-9.6-6.03c-4.36-3.16-8.65-6.42-12.88-9.76
				c-27-21.34-51.6-45.7-73.26-72.45c-10.55-13.02-21.11-26.73-29.58-41.23c-2.48-4.24-1.46-4.3,2.27-6.88
				c3.29-2.27,6.63-4.49,9.97-6.68c6.8-4.47,13.67-8.81,20.63-13.02c33.26-20.16,68.27-37.42,104.83-50.73
				c9.61-3.5,5.46-18.98-4.26-15.44c-37.08,13.5-72.73,30.75-106.55,51.07c-7.68,4.61-15.26,9.38-22.74,14.3
				c-6.75,4.44-16.33,8.89-20.26,16.35c-3.96,7.52-0.51,14.75,3.63,21.23c5.42,8.47,11.17,16.74,17.16,24.82
				c23.86,32.23,51.59,61.49,82.77,86.72c7.26,5.87,14.65,11.67,22.29,17.04c6.98,4.9,15.06,8.89,23.76,6.37
				c7.52-2.18,12.51-8.45,16.91-14.5c5.82-8,11.26-16.31,16.49-24.69c23.1-36.98,41.14-77.06,53.88-118.75
				C1025.23,1472.78,1009.79,1468.56,1006.78,1478.4L1006.78,1478.4z"/>
		</g>
		<g>
			<path class="st5" d="M982.84,1462.55c-8.88,26.16-24.06,50.5-41.18,72.03c-17.31,21.78-37.84,42.39-62.69,55.41
				c-6.09,3.19-0.7,12.41,5.39,9.22c26.23-13.74,47.99-35.63,66.13-58.7c17.78-22.63,33.34-47.75,42.64-75.12
				C995.35,1458.87,985.04,1456.07,982.84,1462.55L982.84,1462.55z"/>
		</g>
		<g>
			<path class="st5" d="M965.23,1441.84c-48.63,23.61-92.88,55.61-130.6,94.33c-4.8,4.92,2.74,12.48,7.55,7.55
				c37.13-38.12,80.57-69.42,128.44-92.66C976.8,1448.06,971.39,1438.85,965.23,1441.84L965.23,1441.84z"/>
		</g>
	</g>
	<g>
		<path class="st6" d="M1893.33,1287.55c-0.58-15.83-1.7-20.81-9.28-34.94c-9.21-17.18-32.69-22.58-48.97-31.88
			c-34.86-19.91-63.5-57.93-93.06-85.11c-29.93-27.52-56.58-58.81-78.69-92.94c-22.36-34.52-39.01-72.31-60.72-107.2
			c-38.36-61.64-104.12-119.71-182.35-104.26c-45.52,8.99-78.03,47.92-113.74,74.47c-41.21,30.65-85.08,57.48-127.94,85.69
			c-87.55,57.62-167.17,126.06-233.43,207.57c-0.04,0.05-0.07,0.1-0.11,0.16c-28.4,3.5-60.99,13.26-71.11,38.92
			c-14.56,36.93-4.1,88.9,16.85,121.34c24.41,37.79,66.08,53.2,109.58,52.9c2.12-0.02,4.33-0.03,6.6-0.05
			c26.74,52.97,70.05,94.47,123.52,122.77c24.38,12.91,49.33,25.42,75.87,33.27c11.76,3.48,24.44,6.72,36.72,7.54
			c15.51,1.04,30.5,7.76,46.61,10.67c16.74,3.02,35.51,4.66,52.66,5.15c24.69,0.71,49.36-1.54,73.93-3.69
			c39.58-3.46,79.25-4.83,118.38-10.7c6.43-2.85,12.9-5.64,19.3-8.56c38.6-17.61,75.14-38.71,109.16-64.08
			c16.14-12.03,31.21-24.77,45.5-38.98c7.28-7.24,13.89-16.07,21.63-22.73c10.26-8.83,19.58-16.84,32.81-17.39
			C1838.76,1422.34,1896.09,1362.6,1893.33,1287.55z"/>
	</g>
	<g>
		<path class="st7" d="M973.12,1227.58c49.57-35.53,93.3-59.98,153.55-74.18c88.89-20.96,181.25-21.71,271.94-15.69
			c67.28,4.46,130.58,12.49,197.18,23.59c62.57,10.43,128.81,33.88,183.02,72.55c3.37-13.62,8.43-36.99,9.68-51
			c-15.91-15.95-31.08-33.05-46.48-47.21c-29.93-27.52-56.58-58.81-78.69-92.94c-22.36-34.52-39-72.31-60.72-107.2
			c-38.36-61.64-104.12-119.71-182.35-104.26c-45.52,8.99-78.03,47.92-113.74,74.47c-41.21,30.65-85.08,57.48-127.95,85.69
			c-77.83,51.23-149.36,111.03-210.85,180.93C968.94,1190.82,969.94,1209.35,973.12,1227.58z"/>
	</g>
	<g>
		<path class="st1" d="M1877.86,1031.29c-9.69-38.56-21.02-76.73-37.21-112.96c-1.49-2.19-2.95-5-4.5-8.49
			c-11.68-18-37.71-71.15-50.87-88.1c-24.46-31.51-51.85-60.74-82.44-86.38c-25.39-21.29-52.98-39.76-81.82-56.01
			c-85.79-48.32-205.92-63.9-302.6-50.87c-102.93,13.88-195.55,65.74-274.69,131.07c-48.9,40.37-85.29,102.67-113.63,162.66
			c-32.23,68.22-40.42,126.07-37.17,202.23c0.69,16.13-0.44,54.17,14.99,66.89c9.45,7.8,26.13,4.44,40.18,1.32
			c10.66,3.59,16.78-2.2,24.95-10.73c1.73-1.81,1.31-6.44,3.18-7.93c6.2-4.93,42.4-21.19,50.36-23.04
			c21.35-4.97,37.48-10.02,57.92-17.86c2.16-0.83,4.41-1.52,6.59-2.31c5.25-33.29,22.04-46.55,30.09-79.25
			c2.47-10.02,11.02-24.57,8.56-14.57c-0.04,0.14,13.43-11.82,13.4-11.68c2.41,0.58,7.79,0.62,8.47,3.85c5,23.82-6.32,61.33-0.68,85
			c94.29-19.46,201.42-14.18,293.29-9.77c35.44,1.7,60.18,3.71,94.85,10.39c-0.11-10.94,9.89-19.43,8.8-30.33
			c-0.43-4.33,4.11-7.97,8.08-7.93c4.66,0.04,7.5,3.77,7.93,8.08c1.19,11.93,10.04,22.3,10.1,34.28
			c42.27,9.04,79.67,22.24,117.8,37.7c1.84-1.03,4.08-1.39,6.32-1c14.45,2.54,28.92,5.21,42.95,9.58
			c13.51,4.2,31.07,10.36,37.99,23.87c1.07,2.08,1.14,4.08,0.62,5.84c0.24,2.24-0.45,4.55-1.77,6.32c1.59,4.74,2.2,9.53,1.45,14.31
			c-2.13,13.57,10.07,25.28,23.4,18.32c15.91-8.29,36.59-4.4,50.59-14.45c12.58-9.03,9.52-29.26,13.86-42.53
			c14.87-45.43,15.8-105.49,10.28-145.38C1877.46,1031.44,1877.61,1031.38,1877.86,1031.29z"/>
	</g>
	<g>
		<g>
			<path class="st8" d="M1880.85,1077.34c-0.04-0.3-4.54-26.22-4.58-26.53c-1.23-9.12-2.87-18.35-4.8-27.61
				c-13.37-2.69-26.36-7.1-38.15-12.88c-31.25-15.32-64.8-37.37-83.72-66.22c-11.86-18.09-23.18-34.82-33.74-53.67
				c2.25,14.29,9.36,28.42,9.2,42.51c-0.26,23.43-0.51,49.08-24.32,60.5c-30.05,14.41-66.7-9.2-87.94-29.13
				c-29-27.21-48.83-63.09-68.08-97.42c-14.29-25.48-22.42-65.08-40.98-88.1c0.64,6.46,6.87,24.12,7.41,30.57
				c3.92,46.6,8.91,115.84-11.06,160.39c-37.74,84.19-177.68,77.67-249.91,50.4c-51.89-19.59-48.68-125.65-42.01-166.45
				c4.66-28.48,12.17-56.41,21.05-83.87c-15.4,16.84-27.01,37.2-37.53,57.37c-11.78,22.58-22.82,45.45-33.84,68.41
				c-10.64,22.16-21.75,44.29-35.63,64.63c-11.72,17.17-26.17,35.2-45.51,44.11c-12.33,5.68-26.77,9.36-39.79,3.77
				c-11.36-4.88-18.11-15.45-22.1-26.73c-10.37-29.26-6.02-64.11-1.02-93.99c1.67-9.96,3.76-19.86,6.24-29.65
				c-14.85,23.48-25.95,49.37-35.66,75.57c-6.68,18.01-12.86,36.2-19.54,54.21c-5.51,14.85-10.9,30.49-20.39,43.37
				c-5.54,7.51-13.09,15.02-23.01,15.46c-8.04,0.35-15-4.24-19.88-10.31c-1.74-2.17-3.31-4.47-4.74-6.86
				c-4.45,29.78-5.38,60.63-3.9,95.29c0.69,16.13-0.44,54.17,14.99,66.89c9.45,7.8,26.13,4.44,40.18,1.32
				c10.66,3.59,16.78-2.2,24.95-10.73c1.73-1.81,1.31-6.44,3.18-7.93c6.2-4.93,42.4-21.19,50.36-23.04
				c21.35-4.97,37.48-10.02,57.92-17.86c2.16-0.83,4.41-1.52,6.59-2.31c5.25-33.29,22.04-46.55,30.09-79.25
				c2.47-10.02,11.02-24.57,8.56-14.57c-0.03,0.14,13.43-11.82,13.4-11.68c2.41,0.58,7.79,0.62,8.47,3.85
				c5,23.82-6.32,61.33-0.68,85c94.29-19.46,201.42-14.18,293.29-9.77c35.44,1.7,60.18,3.71,94.85,10.39
				c-0.11-10.94,9.89-19.43,8.8-30.33c-0.43-4.33,4.11-7.97,8.08-7.93c4.66,0.04,7.5,3.77,7.93,8.08
				c1.19,11.93,10.04,22.3,10.1,34.28c42.27,9.04,79.68,22.24,117.8,37.7c1.84-1.03,4.08-1.39,6.32-1
				c14.45,2.54,28.92,5.21,42.95,9.58c13.51,4.2,31.07,10.36,37.99,23.87c1.06,2.07,1.14,4.08,0.62,5.84
				c0.24,2.24-0.45,4.55-1.77,6.32c1.58,4.74,2.2,9.53,1.45,14.31c-2.13,13.56,10.07,25.28,23.4,18.32
				c15.9-8.29,36.59-4.4,50.59-14.45c12.58-9.03,11.89-28.7,13.86-42.53C1872.93,1136.67,1886.37,1117.23,1880.85,1077.34z"/>
		</g>
	</g>
	<g>
		
			<ellipse transform="matrix(0.9998 -0.0175 0.0175 0.9998 -23.6588 20.4803)" class="st9" cx="1157.76" cy="1361.34" rx="73.38" ry="55.41"/>
	</g>
	<g>
		
			<ellipse transform="matrix(0.1098 -0.994 0.994 0.1098 93.7121 2806.6946)" class="st9" cx="1613.7" cy="1351.03" rx="55.41" ry="73.38"/>
	</g>
	<g>
		<ellipse class="st10" cx="1388.71" cy="1278.74" rx="29.8" ry="17.21"/>
	</g>
	<g>
		<path class="st11" d="M1317.44,640.71c-239.93,32.74-479.68,275.65-402.98,531.25c0.31,1.02,2.11,0.92,1.97-0.25
			c-15.5-125.27,16.18-249.85,97.45-348.08c78.35-94.68,187.2-152.01,304.87-178.6C1327.11,643.14,1325.5,639.61,1317.44,640.71z"/>
	</g>
	<g>
		<path class="st7" d="M1834.1,1317.75c-0.01-1.27-0.07-2.56-0.16-3.86c-2.02-27.4-25.61-59.85-56.01-46.18
			c-5.74,2.58-4.21,10.59,0.26,13.28c-7.82,32.1-13.83,64.19-18.6,96.88c-0.91,6.25,3.73,13.66,11.07,11.27
			C1802.57,1378.75,1834.49,1353.72,1834.1,1317.75z"/>
	</g>
	<g>
		<path class="st7" d="M988.87,1351.68c-6.29-37.07-8.49-75.16-12.69-112.53c-0.41-3.65-3.02-5.57-5.7-5.77
			c-3.45-2.08-7.94-2.45-12.08-0.32c-27.07,13.87-45.17,44.01-41.45,74.88c3.76,31.25,30.06,47.99,57.32,58.1
			C983.44,1369.43,990.23,1359.72,988.87,1351.68z"/>
	</g>
	<g>
		<path class="st12" d="M1215.07,1739.5c-5.66,21.58-20.25,51.56-2.27,64.78c50.78,37.34,430.4,43.21,424.66-19.98
			c-4.97-54.65-32.58-117.53-51.9-175.49c-3.34-10.01-15.5-30.95-22.73-38.64c-9.66-10.27-27.79,0.71-41.87,1.39
			c-75.37,3.67-167.8,15.65-243.38,3.15c-37.03-6.12-29.93,6.21-39.88,44.13C1227.27,1658.6,1225.51,1699.74,1215.07,1739.5z"/>
	</g>
	<g>
		<path class="st13" d="M1358.46,1622.58c-12.63-5.67-26.37-8.88-38.27-16.12c-5.59-3.4-10.44-7.79-14.42-13
			c-3.3-4.32-3.72-7.78-8.68-9.84c-1.15-0.48-2.16-0.02-2.98,0.78c-9.81,9.62,4.73,29.72,11.72,36.93
			c13.13,13.55,31.65,19.4,50.2,19.01C1365.8,1640.14,1366.28,1626.09,1358.46,1622.58z"/>
	</g>
	<g>
		<path class="st13" d="M1287.75,1733.56c-1.29-26.21-1.34-56.41-12.37-80.52c-0.09-0.2-0.38-0.21-0.47,0
			c-10.56,23.53-10.1,52.74-10.12,78.21c-0.02,29.69-0.9,59.62,7,88.47c2.26,8.27,14.08,5.28,15.36-1.89
			C1292.11,1790.1,1289.13,1761.51,1287.75,1733.56z"/>
	</g>
	<g>
		<path class="st13" d="M1512.55,1585.62c-9.8,3.13-15.62,9.6-23.64,15.79c-11.45,8.83-24.55,15.92-38.07,21.05
			c-25.25,9.58-50.54,9.2-76.1,15.55c-0.92,0.23-1.4,1.37-0.56,2.03c21.58,17.18,57.28,14.87,82.05,6.52
			c23.67-7.98,60.73-27.37,64.27-54.73C1521.09,1587.26,1516.66,1584.3,1512.55,1585.62z"/>
	</g>
	<g>
		<path class="st2" d="M1212.15,1758.35c0.18-2.19,0.45-4.57,2.01-6.11c2.01-1.98,5.24-1.73,8.02-1.33
			c18.85,2.71,33.11,1.07,52.11-0.27c10.86-0.77,26.21,2.17,36.98,0.57c23.94-3.56,25.69-23.1,49.89-22.62
			c43.29,0.87,82.3-5.95,103.12,1.98c53.87,20.52,124.36,21.21,153.43-0.11c8.28,21.15,16.57,42.3,24.85,63.46
			c0.8,2.04,1.61,4.18,1.32,6.35c-0.55,4.12-4.41,7.32-8.4,8.48c-102.78,29.81-216.7,35.16-331.62,27.41
			c-24.29-1.64-51.19-5.89-73.16-16.72c-7.84-3.86-19.71-9.71-22.94-18.35C1204.19,1791.49,1211.33,1768.4,1212.15,1758.35z"/>
	</g>
	<g>
		<g>
			<path class="st12" d="M1467.64,1303.58c-5.73-4.6-18.41-0.47-24.94,0.07c-15.37,1.26-30.74,2.48-46.13,3.42
				c-27.34,1.66-56.06,6.67-83.34,4.24c-4.66-0.41-7.57,2.88-8.45,6.81c-0.54,0.5-1.01,1.07-1.48,1.63
				c-1.22,7.28-1.46,14.66-1.06,22.07c1.45,3.74,1.46,9.84,1.65,15.44c0.7,4.53,1.54,9.06,2.49,13.57
				c2.14,6.17,4.97,12.14,8.52,17.59c8.99,13.82,22.97,24.95,38.62,30.3c34.92,11.93,92.88,3.83,113.82-29.73
				C1478.04,1371.84,1481.43,1314.66,1467.64,1303.58z"/>
		</g>
		<g>
			<path class="st5" d="M1307.71,1318.74c51.47-0.89,102.87-4.57,154.3-6.71c2.76-0.11,5.82,0.17,8.54-0.29
				c0.42-0.07,1.31,0.21,1.68,0.01c-1.78,0.97-3.48-4.63-4.21-2.09c-0.25,0.89,0.26,2.66,0.32,3.61
				c0.91,14.18,1.01,29.31-0.82,43.41c-2.24,17.28-9.35,33.84-23.08,45.04c-15.84,12.91-37.72,17.81-57.78,16.76
				c-22.89-1.19-47.65-10.82-60.6-30.63c-14.36-21.97-14.37-49.11-14.19-74.42c0.05-6.98-10.79-6.98-10.84,0
				c-0.17,24.19,0.18,49.16,10.89,71.4c9.63,19.98,27.56,33.21,48.45,39.82c38.68,12.23,89.85,1.33,109.23-37.38
				c8.06-16.1,9.55-33.66,9.82-51.38c0.12-7.94,0.32-15.97-0.32-23.9c-0.39-4.83-0.81-10.32-6.63-11.08
				c-5.99-0.79-12.75,0.36-18.74,0.63c-13.96,0.64-27.92,1.35-41.88,2.04c-34.68,1.71-69.4,3.7-104.13,4.31
				C1300.74,1308.03,1300.72,1318.86,1307.71,1318.74L1307.71,1318.74z"/>
		</g>
	</g>
	<g>
		<path class="st5" d="M1509.84,1279.21c0.03-0.57,0.09-1.14,0.12-1.71c0.13-2.89-0.6,2.52-0.12,0.71c0.27-1.03,0.39-2.12,0.65-3.16
			c0.29-1.14,0.65-2.25,1.01-3.37c1.07-3.28-1.08,1.78,0.25-0.6c0.46-0.83,2.23-5.18,3.26-5.35c0.16-0.03-2.15,2.44-0.77,1.03
			c0.33-0.34,0.63-0.74,0.96-1.1c0.81-0.9,1.67-1.75,2.57-2.57c0.35-0.32,0.76-0.62,1.1-0.96c1.63-1.62-1.06,0.84-1.03,0.76
			c0.21-0.6,2.23-1.57,2.71-1.88c1.89-1.2,3.97-2.02,5.87-3.16c1.42-0.85-2.78,0.83-1.16,0.49c0.48-0.1,0.94-0.38,1.41-0.54
			c1.08-0.36,2.15-0.74,3.25-1.06c2.23-0.65,4.49-1.02,6.75-1.53c2.22-0.5-3.37,0.25,0.25-0.03c1.04-0.08,2.07-0.18,3.11-0.23
			c2.35-0.12,4.7-0.1,7.05,0.04c1.17,0.07,2.34,0.24,3.51,0.32c1.76,0.11-2.99-0.55-1.27-0.17c0.51,0.11,1.03,0.17,1.54,0.26
			c2.42,0.44,4.82,1.02,7.17,1.76c0.98,0.31,1.94,0.66,2.92,1c3.11,1.09-1.26-0.73,0.3,0.1c2.01,1.08,4.05,2.01,5.98,3.25
			c0.52,0.33,2.27,1.14,2.47,1.69c-0.37-1.01-2.3-2.01-0.69-0.51c0.36,0.34,0.76,0.64,1.13,0.97c0.74,0.66,1.45,1.34,2.14,2.05
			c0.42,0.44,3.26,3.4,1.62,1.7c-1.53-1.58,0.88,1.32,1.3,1.98c0.6,0.96,1.11,1.97,1.66,2.96c0.05,0.08,0.68,1.16,0.65,1.38
			c-0.85-2.07-1.01-2.43-0.48-1.1c0.09,0.24,0.18,0.49,0.27,0.73c0.39,1.27,0.81,2.51,1.12,3.8c0.13,0.53,0.22,1.06,0.35,1.59
			c0.32,1.31,1.24,2.73,0.03-0.32c0.47,1.18,0.26,3.04,0.28,4.32c0.02,1.36-0.02,2.73-0.11,4.09c-0.05,0.79-0.15,1.57-0.21,2.35
			c0.17-2.19,0.22-1.5-0.09,0.28c-1.26,7.2,1.93,14.6,9.46,16.66c6.53,1.8,15.4-2.22,16.66-9.46c2.44-13.93,1.51-28.28-5.99-40.63
			c-6.78-11.15-17.28-18.67-29.22-23.45c-22.26-8.92-49.98-5.67-68.73,9.46c-11.38,9.18-17.22,22.76-18.09,37.15
			c-0.44,7.31,6.54,13.55,13.55,13.55C1504,1292.75,1509.4,1286.54,1509.84,1279.21L1509.84,1279.21z"/>
	</g>
	<g>
		<path class="st5" d="M1199.79,1304.12c-0.85-2.78-1.45-5.57-1.98-8.42c0.76,4.12,0.05-0.29,0-1.25c-0.07-1.54-0.07-3.08,0.03-4.62
			c0.03-0.54,0.11-1.09,0.13-1.62c0.08-2.42,0.03,1.18-0.17,1.22c0.08-0.02,0.76-3.54,0.83-3.81c0.27-0.98,0.68-1.93,0.92-2.91
			c0.64-2.54-1.25,2.27-0.38,0.8c0.38-0.63,0.63-1.36,0.97-2.01c0.64-1.23,2.08-4.68,3.35-5.31c-1.43,0.7-1.86,2.14-0.5,0.73
			c0.43-0.44,0.81-0.93,1.23-1.38c0.85-0.9,1.73-1.77,2.65-2.6c0.48-0.43,3.46-2.77,1.51-1.33c-1.96,1.46,1.18-0.78,1.71-1.12
			c2.04-1.33,4.17-2.46,6.35-3.54c0.5-0.25,1.22-0.73,1.76-0.8c-0.1,0.01-3.26,1.19-1.08,0.48c1.11-0.36,2.2-0.82,3.31-1.18
			c2.37-0.77,4.79-1.41,7.24-1.91c1.17-0.24,2.35-0.38,3.51-0.62c1.85-0.37-3.64,0.28-0.85,0.13c0.52-0.03,1.06-0.11,1.58-0.15
			c2.62-0.22,5.26-0.28,7.89-0.19c1.05,0.04,2.09,0.1,3.13,0.19c0.64,0.05,1.3,0.18,1.94,0.2c1.85,0.04-3.59-0.7-0.9-0.11
			c2.26,0.5,4.52,0.86,6.75,1.51c1.22,0.35,2.4,0.78,3.6,1.18c3.15,1.05-1.58-0.9,0.23,0.06c2.19,1.17,4.32,2.31,6.44,3.61
			c2.89,1.78-1.8-1.79,0.75,0.54c0.9,0.82,1.81,1.62,2.66,2.5c0.5,0.52,3.16,3.91,1.8,1.97c-1.4-1.98,1.09,1.77,1.42,2.34
			c0.42,0.73,1.8,2.52,1.73,3.39c0.06-0.68-0.97-2.82-0.48-1.07c0.21,0.76,0.53,1.5,0.76,2.26c0.4,1.31,0.69,2.65,0.99,3.98
			c0.08,0.35,0.51,3.15,0.17,0.73c-0.35-2.48,0.08,1.26,0.11,1.71c0.51,7.3,5.86,13.55,13.55,13.55c6.94,0,14.06-6.21,13.55-13.55
			c-0.96-13.88-6.1-27.41-16.82-36.72c-10.42-9.05-23.09-13.59-36.68-15.01c-24.72-2.59-52.38,7.52-66.09,28.99
			c-8.81,13.8-9.47,31.05-4.77,46.39c2.14,6.99,9.47,11.44,16.66,9.46C1197.25,1318.88,1201.94,1311.14,1199.79,1304.12
			L1199.79,1304.12z"/>
	</g>
	<g>
		<path class="st5" d="M1467.04,1335.05c-6.3,9.01-15.23,16.29-25.37,20.56c-1.12,0.47-1.99,1.31-1.99,2.61
			c0,1.2,0.84,2.28,1.99,2.61c7.92,2.32,15.77,4.87,23.53,7.66c2.49,0.89,4.7-2.81,2.64-4.53c-4.5-3.74-9.48-6.63-14.96-8.66
			c0,1.74,0,3.48,0,5.23c7.47-3.09,13.74-8.18,18.18-14.96c-1.65-0.7-3.3-1.39-4.95-2.09c-1.18,4.22-3.32,8.03-6.35,11.2
			c1.51,0.88,3.02,1.76,4.53,2.64c0.51-2.02,1.03-4.04,1.54-6.06c-1.51,0.4-3.02,0.8-4.53,1.2c1.53,1.8,2.01,4.26,1.44,6.52
			c1.74,0,3.48,0,5.23,0c-0.3-1.26-0.6-2.51-0.9-3.77c-0.73-3.06-5.2-2.26-5.32,0.72c-0.07,1.84,0.39,3.91,2.04,4.97
			c1.89,1.22,4.35,0.52,5.45-1.4c1.11-1.93,0.33-4.36-1.68-5.29c-1.85-0.86-4.08-0.1-5.08,1.66c-1.73,3.04,2.95,5.77,4.68,2.73
			c-0.65,0.73-1.37,0.86-2.15,0.38c-0.23-0.4-0.46-0.8-0.7-1.2c0.98-0.25,1.96-0.51,2.94-0.76c-0.08-0.12-0.11-0.23-0.09-0.35
			c0.04-0.2,0-0.55,0.01-0.74c-1.77,0.24-3.55,0.48-5.32,0.72c0.3,1.26,0.6,2.51,0.9,3.77c0.62,2.6,4.58,2.56,5.23,0
			c1.07-4.24-0.01-8.49-2.83-11.79c-1.34-1.57-4.05-0.68-4.53,1.2c-0.51,2.02-1.03,4.04-1.54,6.06c-0.65,2.56,2.62,4.64,4.53,2.64
			c3.67-3.84,6.32-8.48,7.75-13.59c0.85-3.04-3.3-4.61-4.95-2.09c-3.6,5.49-8.86,9.95-14.94,12.47c-2.48,1.03-2.64,4.24,0,5.23
			c4.55,1.69,8.84,4.16,12.57,7.27c0.88-1.51,1.76-3.02,2.64-4.53c-7.77-2.78-15.61-5.34-23.53-7.66c0,1.74,0,3.48,0,5.23
			c11.56-4.87,21.41-12.77,28.61-23.05c0.84-1.2,0.22-3.01-0.97-3.71C1469.39,1333.29,1467.88,1333.85,1467.04,1335.05
			L1467.04,1335.05z"/>
	</g>
	<g>
		<path class="st5" d="M1307.22,1332.77c3.54,14.62,15.45,28.3,30.38,31.79c0-1.74,0-3.48,0-5.23
			c-11.55,3.35-18.77,15.02-17.17,26.81c1.65-0.7,3.3-1.39,4.95-2.09c-5.06-10.47-7.54-21.93-7.38-33.55
			c-1.77,0.24-3.55,0.48-5.32,0.72c2.25,7.02,4.5,14.04,6.74,21.06c0.76,2.36,4.7,2.79,5.23,0c0.67-3.54,0.89-7.05,0.52-10.64
			c-1.68,0.46-3.37,0.91-5.05,1.37c0.63,1.29,1.26,2.58,1.89,3.87c1.43,2.93,5.47,0.74,4.95-2.09c-0.45-2.48-0.9-4.97-1.35-7.45
			c-1.11,1.11-2.22,2.22-3.33,3.33c1.07,0.16,1.69,0.43,2.44,1.23c0.88-1.51,1.76-3.02,2.64-4.53c-2.6-0.97-5.03-2.24-7.36-3.75
			c-0.7,1.65-1.39,3.3-2.09,4.95c3.24,0.74,5.97,2.19,8.34,4.52c0.88-1.51,1.76-3.02,2.64-4.53c-2.44-0.76-5.67,0.08-5.77,3.12
			c-0.1,2.84,2.79,4.2,5.1,3.12c3.16-1.47,0.41-6.15-2.73-4.68c-0.11,0.05-0.22,0.1-0.34,0.16c0.91,0,1.82,0,2.73,0
			c0.24,0.58,0.48,1.15,0.72,1.73c-0.42,0.54-0.83,1.08-1.25,1.62c0.03,0.05,0.06,0.1,0.09,0.16c2.61,0.81,4.53-2.67,2.64-4.53
			c-3.01-2.95-6.62-4.97-10.74-5.91c-3.01-0.69-4.7,3.27-2.09,4.95c2.73,1.76,5.61,3.16,8.66,4.29c2.69,1.01,4.34-2.7,2.64-4.53
			c-1.31-1.41-2.92-2.33-4.83-2.62c-2.12-0.32-3.73,1.16-3.33,3.33c0.45,2.48,0.9,4.97,1.35,7.45c1.65-0.7,3.3-1.39,4.95-2.09
			c-0.63-1.29-1.26-2.58-1.89-3.87c-1.15-2.34-5.32-1.29-5.05,1.37c0.32,3.1,0.25,6.14-0.33,9.2c1.74,0,3.48,0,5.23,0
			c-2.25-7.02-4.5-14.04-6.74-21.06c-0.92-2.88-5.28-2.41-5.32,0.72c-0.17,12.6,2.64,24.94,8.12,36.28
			c1.46,3.03,5.32,0.67,4.95-2.09c-1.19-8.83,4.96-17.7,13.39-20.14c2.48-0.72,2.67-4.6,0-5.23c-13.18-3.08-23.47-15.13-26.6-28.01
			C1311.63,1327.94,1306.4,1329.38,1307.22,1332.77L1307.22,1332.77z"/>
	</g>
	<g>
		<path class="st5" d="M1337.88,1364.19c12.91,1.61,26.3,1.06,39.27,0.86c18-0.29,36.05-0.99,53.96-2.91
			c7.4-0.79,14.91-1.68,22.1-3.67c3.36-0.93,1.93-6.16-1.44-5.23c-14.26,3.95-29.69,4.51-44.38,5.33
			c-17.17,0.95-34.39,1.36-51.59,1.08c-5.96-0.1-12-0.15-17.93-0.88C1334.43,1358.34,1334.46,1363.76,1337.88,1364.19
			L1337.88,1364.19z"/>
	</g>
	<g>
		<g>
			<path class="st1" d="M698.62,946.74c-2.71,17.54,137.18,36.81,171.4,28.06c3.1-0.79,8.34,10.59,10.9,10.56
				c1.61-0.02,15.5,8.07,16.86,8.14c10.73-36.02,29.96-74.29,46.11-108.3c-7.62-3.27-32.13-11.05-31.99-11.12
				c7.25-3.49-114.41-119.52-125.77-107.72C763.12,790.26,708.96,879.77,698.62,946.74z"/>
		</g>
		<g>
			<path class="st2" d="M914.9,875.1c-11.21,17.57-19.76,37.49-27.42,56.45c-6.1,15.11-10.14,30.81-12.93,46.76
				c2.4,3.09,4.86,7.06,6.37,7.05c1.61-0.02,15.5,8.07,16.86,8.14c10.73-36.02,29.96-74.29,46.11-108.3
				C937.92,882.64,921.63,877.33,914.9,875.1z"/>
		</g>
		<g>
			<path class="st3" d="M895.99,912.15c5.2-12.76,10.62-25.46,16.9-37.72c-0.64-0.22-1.01-0.34-0.99-0.35
				c7.25-3.49-114.41-119.52-125.77-107.72c-9.92,10.31-25.64,32.82-41.13,60.46c3.77,0.37,7.53,0.99,11.24,1.85
				c30.08,6.97,56.65,25.79,79.57,45.78c19.06,16.62,36.45,35.2,52.59,54.68C890.9,923.37,893.72,917.72,895.99,912.15z"/>
		</g>
		<g>
			<path class="st4" d="M914.73,875.05c-8.46,18.48-16.17,37.33-22.14,56.74c0.58,0.1,1.15,0.25,1.69,0.49
				c7.71,3.38,14.74,8.15,21.64,12.96c8.95-20.58,18.92-40.98,27.97-60.03C937.87,882.62,921.35,877.23,914.73,875.05z"/>
		</g>
		<g>
			<path class="st14" d="M899.74,982.83c-2.82-1.32-5.65-2.64-8.47-3.96c-1.25-0.59-2.51-1.17-3.76-1.76
				c-1.31-0.61-3.16-2.45-2.18-0.22c1.26,2.88,0.95-1.42,1.09-2.42c0.18-1.25,0.37-2.51,0.58-3.76c0.46-2.81,0.97-5.62,1.55-8.41
				c2.22-10.86,5.3-21.54,9.19-31.92c3.76-10.03,8.39-19.72,13.7-29.02c1.41-2.47,2.88-4.92,4.39-7.33c1.04-1.67,3.03-6.4,4.69-7.15
				c-1.08,0.49-0.09,0.11,0.87,0.49c1.29,0.51,2.71,0.81,4.04,1.21c3.37,1.01,6.74,2.02,10.11,3.03
				c9.89,2.96,14.12-12.49,4.26-15.44c-6.73-2.02-14.94-6.01-22.09-5.14c-7.66,0.93-11.46,8.23-15.2,14.12
				c-7.67,12.1-14,24.98-19.2,38.32c-5.18,13.28-9.02,27.07-11.44,41.12c-1.02,5.9-3.8,14.74-0.57,20.31
				c3.61,6.21,14.22,8.89,20.36,11.76C900.93,1000.99,909.07,987.19,899.74,982.83L899.74,982.83z"/>
		</g>
		<g>
			<path class="st14" d="M872.16,964.46c-35.35,1.48-70.81-0.67-105.65-6.91c-17-3.04-34.14-6.72-50.63-11.92
				c-7.77-2.45-10.1-5.66-8.04-13.82c2.08-8.23,4.95-16.36,7.74-24.37c11.37-32.61,26.56-63.86,44.98-93.07
				c4.25-6.74,8.66-13.37,13.25-19.88c2.17-3.08,4.38-6.14,6.63-9.17c1.71-2.3,6.11-10.53,9.07-11.46
				c3.55-1.11,13.77,8.93,16.7,11.17c6.9,5.28,13.69,10.72,20.36,16.29c29.15,24.29,56.18,51.08,80.28,80.4
				c6.55,7.97,17.82-3.42,11.32-11.32c-24.62-29.96-52.31-57.28-82.18-81.98c-6.81-5.63-13.73-11.11-20.74-16.48
				c-6.47-4.96-14.04-12.67-22.33-14.19c-8.5-1.56-14.13,3.66-18.98,9.85c-6.11,7.79-11.96,15.8-17.55,23.97
				c-22.13,32.35-40.09,67.49-53.62,104.27c-3.29,8.95-6.33,18-9.05,27.14c-2.28,7.66-4.38,15.75-1.21,23.47
				c6.35,15.48,29.83,17.86,43.88,21.18c44.39,10.48,90.2,14.75,135.75,12.84C882.42,980.04,882.48,964.02,872.16,964.46
				L872.16,964.46z"/>
		</g>
		<g>
			<path class="st14" d="M878.97,936.62c-27.48,0.31-55.01-5.77-80.92-14.54c-26.49-8.97-53.19-21.53-73.85-40.75
				c-5.02-4.67-12.59,2.86-7.55,7.55c21.57,20.06,49,33.25,76.6,42.82c27.32,9.48,56.68,15.93,85.72,15.6
				C885.83,947.21,885.85,936.54,878.97,936.62L878.97,936.62z"/>
		</g>
		<g>
			<path class="st14" d="M892.59,913.44c-38.43-38.02-83.25-69.21-132.31-91.91c-6.19-2.87-11.62,6.33-5.39,9.22
				c48.29,22.35,92.32,52.82,130.15,90.24C889.94,925.82,897.49,918.28,892.59,913.44L892.59,913.44z"/>
		</g>
	</g>
	<g>
		<g>
			<path class="st1" d="M2078.8,1007.43c1.18,17.71-139.85,24.83-173.18,13.16c-3.02-1.06-9.23,9.83-11.77,9.58
				c-1.6-0.16-16.14,6.7-17.5,6.66c-7.58-36.81-23.44-76.6-36.59-111.87c7.88-2.6,32.97-8.24,32.83-8.32
				c-6.93-4.1,124.3-109.2,134.6-96.46C2028.05,845.97,2074.28,939.81,2078.8,1007.43z"/>
		</g>
		<g>
			<path class="st2" d="M1869.51,917.39c9.65,18.47,16.45,39.06,22.45,58.61c4.78,15.58,7.44,31.57,8.85,47.7
				c-2.66,2.87-5.45,6.62-6.96,6.47c-1.6-0.16-16.14,6.7-17.5,6.66c-7.58-36.81-23.44-76.6-36.59-111.87
				C1845.93,922.91,1862.61,919.02,1869.51,917.39z"/>
		</g>
		<g>
			<path class="st3" d="M1885.16,955.93c-4.08-13.16-8.38-26.28-13.58-39.03c0.66-0.16,1.03-0.25,1.01-0.26
				c-6.92-4.1,124.3-109.2,134.6-96.46c8.99,11.12,22.71,34.91,35.76,63.78c-3.79,0.05-7.59,0.34-11.36,0.87
				c-30.57,4.35-58.67,20.8-83.23,38.74c-20.42,14.91-39.35,31.92-57.11,49.94C1889.26,967.55,1886.94,961.68,1885.16,955.93z"/>
		</g>
		<g>
			<path class="st4" d="M1869.69,917.35c6.83,19.14,12.89,38.59,17.16,58.44c-0.58,0.05-1.16,0.15-1.73,0.34
				c-7.98,2.7-15.39,6.85-22.68,11.04c-7.14-21.28-15.31-42.46-22.68-62.22C1845.98,922.9,1862.9,918.96,1869.69,917.35z"/>
		</g>
		<g>
			<path class="st5" d="M1880.87,1040.98c6.4-2.34,16.17-4.08,21.15-8.9c5.13-4.96,3.33-13.44,2.81-19.82
				c-1.21-14.8-3.81-29.52-7.93-43.79c-4.01-13.91-9.45-27.49-16.1-40.35c-3.07-5.94-6.19-13.27-13.34-15.01
				c-7.22-1.76-16.47,1.89-23.51,3.35c-10.08,2.09-5.82,17.53,4.26,15.44c2.76-0.57,14.13-4,15.28-2.91
				c0.8,0.75,2.26,4.86,3.03,6.33c1.22,2.33,2.39,4.69,3.52,7.06c4.79,10.07,8.65,20.56,11.69,31.29c2.94,10.37,5.18,21,6.42,31.71
				c0.6,5.18,0.4,10.61,1.21,15.74c0.02,0.66,0.04,1.31,0.07,1.97c1.51-2.34,1.47-3.07-0.13-2.19c-0.91-0.13-3.02,1.1-3.9,1.43
				c-2.93,1.07-5.85,2.14-8.78,3.22C1867.02,1029.05,1871.17,1044.53,1880.87,1040.98L1880.87,1040.98z"/>
		</g>
		<g>
			<path class="st5" d="M1903.69,1026.08c40.86,5.27,82.27,5.54,123.17,0.51c9.59-1.18,19.16-2.59,28.67-4.3
				c7.5-1.35,15.61-2.38,22.14-6.64c16.08-10.5,8.1-32.44,4.48-47.38c-9.15-37.7-23.07-74.3-41.1-108.65
				c-4.44-8.46-9.14-16.78-14.09-24.94c-4.32-7.12-8.96-17.71-16.67-21.91c-7.39-4.02-14.49-0.8-20.98,3.14
				c-8.27,5.03-16.43,10.23-24.47,15.61c-35.49,23.75-68.83,50.82-98.7,81.36c-7.21,7.37,4.1,18.7,11.32,11.32
				c23.74-24.27,49.63-46.37,77.2-66.19c12.9-9.28,26.14-18.08,39.67-26.41c1.63-1,6.33-5.15,8.27-4.73c2.18,0.47,5.2,7.3,6.42,9.23
				c4.63,7.35,9.05,14.83,13.25,22.42c16.89,30.5,30.23,62.86,39.78,96.39c2.14,7.5,4.09,15.06,5.84,22.66
				c1.31,5.67,6.42,18.7,2.03,23.81c-3.69,4.29-13.55,4.53-18.66,5.45c-8.98,1.61-18.01,2.98-27.08,4.04
				c-40.04,4.7-80.53,4.32-120.5-0.83C1893.5,1008.75,1893.59,1024.78,1903.69,1026.08L1903.69,1026.08z"/>
		</g>
		<g>
			<path class="st5" d="M1899.53,992.43c28.9,2.84,58.7-1.2,86.74-8.26c28.37-7.15,56.67-18.13,79.9-36.26
				c5.41-4.22-2.19-11.73-7.55-7.55c-22.23,17.36-50.08,27.36-77.2,34.01c-26.58,6.52-54.54,10.07-81.89,7.38
				C1892.7,981.09,1892.75,991.77,1899.53,992.43L1899.53,992.43z"/>
		</g>
		<g>
			<path class="st5" d="M1895.63,965.36c40.51-33.66,86.72-60.12,136.25-78.04c6.41-2.32,3.64-12.64-2.84-10.29
				c-51.36,18.59-98.95,45.88-140.96,80.78C1882.79,962.21,1890.38,969.73,1895.63,965.36L1895.63,965.36z"/>
		</g>
	</g>
	<g>
		<path class="st5" d="M1754.82,1367.35c-9.05,57.01-46.49,103.6-92.29,136.73c-45.64,33.02-99.59,55.6-155,65.57
			c-67.31,12.12-137.79,12.82-205.48,3.46c-67.65-9.35-134.78-29.33-193.74-64.34c-30.74-18.25-58.66-41.48-79.59-70.68
			c-20.85-29.08-33.95-62.42-38.93-97.83c-1.43-10.16-16.86-5.84-15.44,4.26c9.4,66.85,48.28,124.17,102.7,163.06
			c57.3,40.94,127.25,64.71,196.06,77.04c70.69,12.67,143.35,13.83,214.49,4.19c59.99-8.13,118.03-28.15,168.94-61.27
			c55.18-35.89,103.08-88.99,113.71-155.95C1771.86,1361.52,1756.43,1357.18,1754.82,1367.35L1754.82,1367.35z"/>
	</g>
	<g>
		<path class="st5" d="M920.45,1195.11c-19.6-59.83-24.24-123.35-11.29-185.11c13.04-62.15,41.92-120.01,79.01-171.24
			c68.22-94.25,173.41-161.81,287.14-185.77c57.36-12.09,117.89-12.72,176.03-6.44c58.82,6.36,117.27,21.84,170.3,48.34
			c77.69,38.84,139.03,101.42,183.96,175.09c54.76,89.79,80.27,196.18,56.4,300.04c-3.52,15.32-8.02,30.38-13.29,45.19
			c-3.46,9.73,12.01,13.91,15.44,4.26c20.31-57.12,27.73-118.3,20.08-178.52c-6.63-52.17-23.52-102.41-47.8-148.97
			c-39.78-76.29-98.39-145.83-171.85-191.45c-103.38-64.21-233.54-84.13-353.25-69.6c-119.26,14.47-232.14,75.87-310.7,166.56
			c-41.88,48.35-75.53,105.42-95.58,166.25c-20.01,60.73-24.67,125.56-12.44,188.38c3.11,16,7.33,31.75,12.41,47.24
			C908.21,1209.12,923.67,1204.94,920.45,1195.11L920.45,1195.11z"/>
	</g>
	<g>
		<path class="st5" d="M961.36,1188.24c2.13,32.34,5.91,64.54,11.27,96.5c0.72,4.27,5.99,6.65,9.85,5.59
			c4.52-1.24,6.31-5.57,5.59-9.85c-5.12-30.56-8.66-61.33-10.7-92.25C976.69,1178.01,960.68,1177.94,961.36,1188.24L961.36,1188.24z
			"/>
	</g>
	<g>
		<path class="st5" d="M1794.48,1238.31c20.9-14.5,48.17-14.53,67.34,3.14c17.58,16.2,23.97,39.94,23.18,63.22
			c-1.44,42.23-29.14,78.36-65.63,97.67c-21.21,11.23-45.07,16.49-69.02,15.52c-10.3-0.42-10.28,15.6,0,16.01
			c49.39,1.99,98.62-21.3,127.52-61.56c28.95-40.34,34.56-104.95-3.98-141.47c-24.15-22.88-60.24-25.25-87.49-6.35
			C1777.99,1230.32,1785.98,1244.21,1794.48,1238.31L1794.48,1238.31z"/>
	</g>
	<g>
		<path class="st5" d="M962.09,1186.55c-25.51-0.91-51.88,3.77-72.28,20.03c-15.83,12.62-25.81,31.22-29.7,50.93
			c-8.71,44.08,6.71,94.09,39.92,124.54c27.19,24.93,64.4,38.04,101.2,35.7c10.23-0.65,10.31-16.67,0-16.01
			c-53.4,3.39-104.23-28.57-120.86-79.87c-10.41-32.13-10.84-73.72,15.02-98.94c17.64-17.2,43.02-21.21,66.71-20.37
			C972.4,1202.93,972.38,1186.91,962.09,1186.55L962.09,1186.55z"/>
	</g>
	<g>
		<path class="st5" d="M1862.79,1225.67c-0.16-2.11-0.31-4.23-0.47-6.35c0.03-0.73-0.13-1.42-0.46-2.06
			c-0.22-0.66-0.58-1.23-1.1-1.72c-0.48-0.52-1.06-0.89-1.72-1.1c-0.64-0.33-1.32-0.49-2.06-0.46c-1.38,0.06-2.81,0.52-3.77,1.56
			c-0.92,1-1.67,2.37-1.56,3.77c0.16,2.12,0.31,4.23,0.47,6.35c-0.03,0.73,0.13,1.42,0.46,2.06c0.22,0.66,0.58,1.23,1.1,1.72
			c0.48,0.52,1.06,0.89,1.72,1.1c0.64,0.33,1.32,0.49,2.06,0.46c1.38-0.06,2.81-0.52,3.77-1.56
			C1862.15,1228.44,1862.9,1227.07,1862.79,1225.67L1862.79,1225.67z"/>
	</g>
	<g>
		<path class="st5" d="M1775.16,1199.24c0.48,34.27-10.16,67.98-14.12,101.84c-0.5,4.3,4.04,8.01,8.01,8.01
			c4.75,0,7.5-3.69,8.01-8.01c3.97-33.89,14.61-67.5,14.12-101.84C1791.03,1188.94,1775.02,1188.91,1775.16,1199.24L1775.16,1199.24
			z"/>
	</g>
	<g>
		<g>
			<path class="st5" d="M963.01,1182.23c27.32-12,55.32-22.42,83.79-31.36c13.23-4.16,27.28-6.85,40.27-11.6
				c4.16-1.52,6.69-4.59,9.13-8.16c6.87-10.04,11.57-21.81,16.5-32.86c6.41-14.37,12.54-28.86,18.97-43.22
				c4.94-11.03,9.68-22.68,16.54-32.69c1.06-1.55,0.18-0.1,0.56-0.74c1.03-1.74,1.14,0.07-0.03-0.25c0.96,0.26-1.27,0.47-2.25,0.49
				c-2.9,0.05-3.02-1.9-4.48-2.23c0.77,0.18,0.57,1.84,0.28,0.47c0.18,0.85,0.5,1.7,0.7,2.55c0.66,2.79,0.63,3.26,0.88,5.9
				c2.49,26.49-2.04,53.84,2.87,80.1c0.77,4.12,2.04,8.61,5.16,11.6c6.62,6.35,18.48,1.26,26.12,0.05c29.76-4.72,59.74-8,89.8-10.05
				c60.55-4.12,121.39-3.15,181.85,1.81c15.4,1.26,30.77,2.79,46.11,4.59c7.43,0.87,14.86,1.8,22.28,2.81
				c6.63,0.9,14.69,3.51,21.33,3.02c11.93-0.88,12.56-19.83,13.93-28.51c2.07-13.12,3.15-26.73,6.87-39.52
				c0.12-0.41,0.39-0.9,0.44-1.31c-0.17,1.21-0.21,0.28-0.13,0.36c-0.54-0.54,3.38-0.92-0.55,0.61c-1.36,0.18-2.73,0.36-4.09,0.54
				c-2.04,1.22-3.75,1.14-5.14-0.22c-0.36,0.24-0.58-1.44,0.2,0.69c0.24,0.66,0.22,0.37,0.84,2.17c2.21,6.41,3.77,13.05,5.32,19.64
				c3.23,13.65,5.46,28.01,10.55,41.13c2.09,5.38,4.44,9.44,10.3,11.04c13.37,3.66,27.33,5.78,40.85,8.87
				c49.25,11.27,97.73,25.52,143.79,46.48c12.27,5.58,24.35,11.56,36.3,17.81c9.12,4.77,17.22-9.04,8.08-13.82
				c-46.14-24.15-94.52-42.88-144.83-56.29c-12.58-3.35-25.24-6.43-37.93-9.35c-13.3-3.05-27.19-7.36-40.75-8.88
				c-5.73-0.64,1.39,0.94,0.59,1.62c0.02-0.01-1.07-1.95-1.17-2.22c0.4,1.12-0.52-1.48-0.69-2.02c-0.54-1.65-1.06-3.32-1.53-4.99
				c-2.06-7.22-3.7-14.56-5.39-21.87c-2.83-12.29-4.43-27.52-11.09-38.5c-3.09-5.09-9.23-7.93-14.48-3.98
				c-3.89,2.93-5.09,8.31-6.12,12.82c-3.15,13.92-4.39,28.24-6.9,42.29c-0.49,2.74-1,5.49-1.68,8.19c-0.29,1.16-0.69,2.3-0.98,3.46
				c-0.11,0.44-0.11,0.29,0.06,0.17c2.54-1.59,5.96-1.15,3.16-2.75c-1.38-0.78-3.82-0.56-5.42-0.79c-3.61-0.52-7.22-1.02-10.84-1.51
				c-7.93-1.08-15.87-2.1-23.82-3.04c-60.69-7.19-121.98-10.37-183.08-8.74c-30.85,0.82-61.66,2.88-92.33,6.32
				c-15.13,1.7-30.23,3.71-45.28,6.05c-3.58,0.56-7.16,1.14-10.74,1.73c0.13-0.02-5.16,0.57-5.36,0.91
				c-0.94,1.55-0.73-0.79,0.55,0.45c0.99,0.96,2.14,1.71,2.78,2.08c-1.2-0.69,0.02,0.65-0.51-1.02c-3.16-9.98-2.35-22.91-2.4-34.26
				c-0.06-14.23,0.36-28.53-0.64-42.74c-0.58-8.25-1.02-22.8-11.18-25.4c-9.86-2.52-15.71,9.36-19.44,16.35
				c-14.21,26.58-24.42,55.18-37.38,82.37c-2.47,5.19-4.99,10.4-7.97,15.33c-0.52,0.86-1.06,1.69-1.6,2.54
				c-0.79,1.24-0.93,1.39-0.57,0.86c-0.16,0.23-0.99,1.34-1.3,1.38c-0.81,0.11,1.39-1.07,0.74-0.59c1.91-1.41,0.49-0.22-1.28,0.15
				c-14.36,3.01-28.64,7.99-42.6,12.47c-14.11,4.53-28.09,9.41-41.94,14.68c-13.71,5.22-27.26,10.82-40.69,16.71
				C945.52,1172.53,953.66,1186.33,963.01,1182.23L963.01,1182.23z"/>
		</g>
	</g>
	<g>
		<path class="st5" d="M1151.14,1017.73c21.29-107.88,57.35-215.75,120.63-306.63c18.08-25.96,38.51-50.19,61.3-72.14
			c4.96-4.77-2.6-12.32-7.55-7.55c-81.76,78.75-131.67,185.19-162.84,292.95c-8.63,29.83-15.82,60.07-21.83,90.53
			C1139.52,1021.6,1149.81,1024.47,1151.14,1017.73L1151.14,1017.73z"/>
	</g>
	<g>
		<path class="st5" d="M1427.24,638.79c67.17,92.03,101.3,203.98,114.32,316.2c3.65,31.51,5.67,63.19,6.34,94.91
			c0.14,6.86,10.82,6.88,10.67,0c-2.41-114.28-22.3-230.35-72.54-333.82c-14.06-28.96-30.59-56.67-49.57-82.68
			C1432.44,627.91,1423.18,633.23,1427.24,638.79L1427.24,638.79z"/>
	</g>
	<g>
		<path class="st5" d="M1443.42,646.52c47.35,1.17,88.8,29.62,123.51,59.41c31.59,27.11,59.58,58.38,83.61,92.36
			c48.9,69.14,82.37,149.16,98.4,232.26c8.89,46.11,12.15,93.26,9.12,140.14c-0.44,6.86,10.23,6.83,10.67,0
			c5.62-86.79-10.24-174.72-42.64-255.26c-32.02-79.59-80.41-153.59-144.62-210.93c-38.4-34.29-84.63-67.34-138.05-68.66
			C1436.55,635.68,1436.56,646.35,1443.42,646.52L1443.42,646.52z"/>
	</g>
	<g>
		<path class="st5" d="M1309.75,632.46c-84.21,19.04-161.91,64.46-220.45,127.86c-62.16,67.33-100.07,153.87-109.38,244.9
			c-5.41,52.83-0.93,106.55,13.33,157.71c1.84,6.61,12.14,3.8,10.29-2.84c-24.71-88.67-18.82-184.65,15.63-269.95
			c32.23-79.82,90.62-147.71,163.33-193.48c40-25.18,83.98-43.49,130.09-53.91C1319.29,641.24,1316.45,630.95,1309.75,632.46
			L1309.75,632.46z"/>
	</g>
	<g>
		<path class="st15" d="M1913.09,1430.97c-13.29,6.19-23.17,18.02-26.95,32.11c-6.78-12.93-18.99-22.33-33.31-25.48
			c13.29-6.19,23.17-18.02,26.98-32.11C1886.56,1418.41,1898.77,1427.82,1913.09,1430.97z"/>
	</g>
	<g>
		<path class="st15" d="M773.37,1392.03c-21.45,9.98-37.4,29.08-43.49,51.81c-10.94-20.87-30.64-36.04-53.75-41.13
			c21.45-9.98,37.4-29.08,43.54-51.82C730.55,1371.77,750.26,1386.95,773.37,1392.03z"/>
	</g>
	<g>
		<path class="st15" d="M749.04,1255.56c-13.29,6.19-23.17,18.02-26.95,32.11c-6.78-12.93-18.99-22.33-33.31-25.48
			c13.29-6.19,23.17-18.02,26.98-32.11C722.51,1243,734.72,1252.41,749.04,1255.56z"/>
	</g>
	<g>
		<path class="st15" d="M817.66,1304.76c-8.95,4.16-15.6,12.13-18.14,21.62c-4.56-8.71-12.79-15.04-22.43-17.16
			c8.95-4.17,15.6-12.13,18.17-21.62C799.8,1296.31,808.02,1302.64,817.66,1304.76z"/>
	</g>
	<g>
		<path class="st12" d="M1887.41,588.19c7.44-16.91,3.91-40.61,4.18-59.52c0.57-40.88-25.2-78.27-48.69-111.25
			c-23.63-33.18-46.66-53-87.22-61.99c-35.79-7.94-60.38-4.94-91.32,14.45c6.16-101.51-71.03-199.87-152.97-254.77
			c-44.67-29.93-96.75-50.1-151.17-47.56c-51.42,2.4-102.91,12.13-146.66,38.75c-41.34,25.15-78.24,70.25-91.51,117.42
			c-19.64-9.15-39.54-17.89-60.63-23.16c-23.5-5.87-47.56-8-71.73-6.9c-48.12,2.19-94.66,16.97-137.55,38.4
			c-38.71,19.34-69.24,42.85-97.88,75.03c-27.18,30.54-45.77,68.13-57.26,107.17c-17.24,58.59-22.02,123.47-9.3,183.44
			c6.72,31.69,19.02,61.93,37.66,88.39c-64.59,45.74-107.18,122.45-103.62,202.45c3.62,81.33,52.51,157.46,129.9,186.45
			c34.19,12.8,71.46,15.98,106.96,8.63c15.64,31.55,29.29,64.02,40.72,97.33c2.31,6.74,12.54,5.38,14.74-0.62
			c14.13-38.49,44.64-68.17,73.51-96.09c28.79-27.84,59.15-54.06,90.87-78.5c63.22-48.72,131.85-90.3,204.27-123.85
			c31.04-14.38,62.78-27.29,95.06-38.63c1.27,0.47,2.78,0.55,4.52,0.02c48.43-14.66,98-25.35,148.2-31.76
			c51.31-6.55,102.75-7.89,154.41-6.59c29.76,0.75,59.51,1.79,89.26,2.72c5.49,0.17,9.12-4.06,8.58-9.42
			c-3.95-39.42-22.84-76.28-26.79-115.7c24.44,1.7,67.31-8.47,85.56-24.23C1862.39,640.25,1883.73,615.26,1887.41,588.19z"/>
	</g>
	<g>
		<path class="st13" d="M855.94,1055.1c33.63-54.18,82.08-103.97,128.02-148.11c57.14-54.89,123.02-100.84,191.35-140.03
			c69.95-40.12,144.65-66.3,224.74-79.96c44.52-7.59,89.79-10.6,134.92-10.22c45.87,0.39,92.42,3.7,137.75,10.93
			c30.03,4.79,59.19,12.56,87.97,21.67c-2.13-8.86-3.85-17.78-4.75-26.85c24.44,1.7,67.31-8.47,85.56-24.23
			c20.89-18.04,42.23-43.03,45.91-70.1c7.48-17,3.88-40.85,4.18-59.81c-0.01,0-0.01,0-0.01-0.01
			c-36.18,15.36-75.72,22.86-114.11,17.63c-29.54-4.03-57.27-16.26-78.55-37.4c-5.2-5.17-9.85-10.77-13.99-16.7
			c-15.33-21.95-46.8-23.48-65.08-3.91c-0.16,0.17-0.31,0.33-0.47,0.5c-18.23,19.35-42.03,30.21-68.28,33.56
			c-31.91,4.07-64.01,0.47-93.47-12.8c-25.59-11.53-48.3-28.83-66.76-49.9c-16.8-19.18-47.52-15.69-60.71,6.13
			c-4.6,7.61-9.72,14.94-15.37,21.93c-47.85,59.28-123.44,89.58-197.52,98.22c-40.26,4.7-81.82,3.67-122.01-3.92
			c-40.07-7.56-74.95,27.78-66.96,67.76c1.41,7.08,2.78,14.18,4.07,21.28c7,38.54,11.52,77.92,8.18,117.1
			c-3.43,40.25-15.83,78.26-34.19,114.1c-21.43,41.81-71.75,96.01-120.77,74.49c0.53,10.01-1.21,19.99-6.7,28.76
			c-14.19,22.67-45.52,26.14-69.75,24.76c-10.02-0.57-20.44-1.97-30.7-4.31c19.96,21.44,44.62,38.61,73.19,49.31
			c34.19,12.8,71.46,15.98,106.96,8.63C862.9,1092.29,851.93,1046.27,855.94,1055.1z"/>
	</g>
	<g>
		<g>
			<path class="st5" d="M915.68,1185.12c27.59-55.43,72.75-101.98,118.41-142.92c48.12-43.14,101.28-80.61,157.37-112.66
				c111.22-63.56,235.25-104.36,362.59-118.66c72.53-8.15,145.83-7.92,218.36,0.02c10.23,1.12,10.15-14.9,0-16.01
				c-130.94-14.33-264.49-2.98-390.64,35.29c-124.54,37.78-242.12,101.11-341.4,185.36c-28.15,23.88-54.94,49.51-79.34,77.23
				c-22.66,25.74-43.84,53.47-59.17,84.27C897.28,1186.23,911.08,1194.35,915.68,1185.12L915.68,1185.12z"/>
		</g>
		<g>
			<path class="st5" d="M1742.26,667.76c8.99,44.81,17.23,89.77,26.79,134.47c2.15,10.07,17.59,5.81,15.44-4.26
				c-9.56-44.7-17.8-89.66-26.79-134.47C1755.67,653.41,1740.24,657.69,1742.26,667.76L1742.26,667.76z"/>
		</g>
		<g>
			<path class="st5" d="M1419.77,569.5c-18.12,0.1-36.21,1-54.25,2.66c-4.31,0.4-8.01,3.39-8.01,8.01c0,4.02,3.67,8.41,8.01,8.01
				c18.04-1.66,36.14-2.56,54.25-2.66c4.33-0.02,8.01-3.66,8.01-8.01C1427.78,573.18,1424.11,569.47,1419.77,569.5L1419.77,569.5z"
				/>
		</g>
		<g>
			<path class="st5" d="M1592.85,608.08c51.88,14.17,102.52,33.86,147.35,63.94c8.58,5.76,16.6-8.11,8.08-13.82
				c-45.89-30.78-98.08-51.05-151.18-65.55C1587.16,589.93,1582.91,605.37,1592.85,608.08L1592.85,608.08z"/>
		</g>
		<g>
			<path class="st5" d="M871.25,946.12c-12.47,32.16-22.42,65.21-29.94,98.86c-2.24,10.04,13.19,14.32,15.44,4.26
				c7.52-33.66,17.47-66.71,29.94-98.86c1.56-4.03-1.72-8.78-5.59-9.85C876.57,939.28,872.82,942.07,871.25,946.12L871.25,946.12z"
				/>
		</g>
		<g>
			<path class="st5" d="M843.41,1052.17c5.36,19.6,14.21,38.01,22.8,56.36c11.42,24.39,22.02,49,30.44,74.61
				c3.2,9.74,18.67,5.57,15.44-4.26c-8.48-25.77-19.07-50.66-30.55-75.21c-8.51-18.2-17.38-36.31-22.7-55.75
				C856.13,1037.98,840.68,1042.2,843.41,1052.17L843.41,1052.17z"/>
		</g>
		<g>
			<path class="st5" d="M1349.18,514.99c21.06,45.72,65.6,74.68,112.55,88.83c53.49,16.12,117.01,17.44,167.81-7.94
				c26.28-13.13,49.01-34.17,61.89-60.76c4.47-9.23-9.33-17.36-13.82-8.08c-23.39,48.29-76.45,69.9-127.6,71.84
				c-47.92,1.82-98.24-8.8-138.42-35.82c-21-14.12-37.97-33.11-48.58-56.15C1358.7,497.56,1344.9,505.69,1349.18,514.99
				L1349.18,514.99z"/>
		</g>
		<g>
			<path class="st5" d="M762.05,969.4c53.24,23.68,115.5-3.86,156.53-39.43c38.28-33.19,65.2-79.84,75.69-129.33
				c6.92-32.67,6.69-66.51-1.52-98.93c-3.28,3.28-6.57,6.57-9.85,9.85c64.54,24.4,136.51,28.16,203.35,11.1
				c55.35-14.13,110.87-42.13,149.73-84.74c22.26-24.41,38.53-53.38,49.12-84.61c3.32-9.78-12.14-13.98-15.44-4.26
				c-17.6,51.88-52.71,93.53-99.57,121.53c-52.39,31.3-113.13,47.66-174.15,46.55c-37.18-0.68-74.01-7.86-108.79-21.01
				c-5.96-2.25-11.23,4.4-9.85,9.85c24.15,95.38-28.36,203.51-118.4,243.41c-27.26,12.08-60.49,18.77-88.77,6.19
				C760.8,951.43,752.64,965.22,762.05,969.4L762.05,969.4z"/>
		</g>
		<g>
			<path class="st5" d="M852.82,1064.66c-34.79,17.6-76.2,17.5-111.01,0.03c-33.02-16.57-59.56-44.84-78.13-76.44
				c-36.94-62.88-42.1-141.45-11.46-207.9c16.62-36.05,42.22-67.8,74.6-90.86c3.54-2.52,5.19-6.92,2.87-10.95
				c-51.45-89.36-53.39-203.83-9.02-296.46c44.61-93.14,134.8-154.35,236.06-169.76c56.34-8.57,114.74-1.97,167.36,20.03
				c3.83,1.6,9.05-1.76,9.85-5.59c8.23-39.53,31.72-76.08,63.41-100.92c41.77-32.74,93.39-48.15,146.06-48.63
				c103.03-0.95,211.17,49.64,269.14,136.21c31.45,46.97,48.4,102.94,44.52,159.59c-0.39,5.65,7.27,10.55,12.05,6.91
				c24.32-18.53,61.81-30.62,91.49-17.85c31.3,13.46,57.74,38.04,77.41,65.49c39.26,54.81,61.31,132.91,22.22,193.6
				c-20.91,32.47-56.58,55.86-96.16,52.47c-10.26-0.88-10.21,15.14,0,16.01c38.65,3.31,75.39-16.54,99.44-45.99
				c24.5-30.02,35.83-67.32,32.94-105.87c-5.55-74.22-52.65-151.24-119.49-185.59c-16.24-8.34-32.53-12.02-50.85-10.6
				c-23.55,1.82-46.26,10.18-65.08,24.51c4.02,2.3,8.03,4.61,12.05,6.91c3.63-53.01-10.36-106.21-36.93-152.01
				c-27.42-47.25-67.73-84.88-114.91-112.03c-94.86-54.58-223.08-69.84-317.93-7.04c-42.04,27.83-74.42,70.59-84.82,120.58
				c3.28-1.86,6.57-3.73,9.85-5.59c-98.24-41.08-215.57-28.39-305.39,27.7c-92.25,57.6-146.1,159.68-149.6,267.57
				c-1.97,60.65,12.19,121.75,42.52,174.44c0.96-3.65,1.91-7.3,2.87-10.95c-63.17,45-103.09,119.67-102.78,197.57
				c0.32,78.66,41.04,161.92,110.8,201.54c41.52,23.58,91.43,25.31,134.14,3.7C870.09,1073.84,862,1060.02,852.82,1064.66
				L852.82,1064.66z"/>
		</g>
	</g>
	<g>
		<path class="st5" d="M1239.5,1575.32c-13.71,57.9-23.98,116.93-33.83,175.59c-2.49,14.83-4.88,29.69-6.74,44.61
			c-1.29,10.36,14.98,10.26,16.26,0c7.56-60.92,20.38-121.6,32.66-181.73c2.33-11.4,4.64-22.82,7.33-34.15
			C1257.59,1569.47,1241.92,1565.13,1239.5,1575.32L1239.5,1575.32z"/>
	</g>
	<g>
		<path class="st5" d="M1557.25,1573.11c30.59,73.24,56.59,148.32,77.83,224.8c2.8,10.07,18.48,5.79,15.68-4.32
			c-21.25-76.47-47.24-151.56-77.83-224.79C1568.95,1559.28,1553.22,1563.45,1557.25,1573.11L1557.25,1573.11z"/>
	</g>
	<g>
		<path class="st14" d="M1299.56,1592.95c16.78,36.92,63.55,47.89,100.38,48.18c42.47,0.33,86-17.22,107.69-55.43
			c5.17-9.11-8.87-17.31-14.04-8.2c-18.89,33.28-56.81,47.66-93.65,47.37c-31.43-0.25-71.95-8.44-86.35-40.12
			C1309.27,1575.24,1295.26,1583.49,1299.56,1592.95L1299.56,1592.95z"/>
	</g>
	<g>
		<path class="st14" d="M1403.59,1587.94c1.44,15.04-1.3,30.09,0.14,45.13c0.41,4.22,3.45,8.34,8.13,8.13
			c4.06-0.18,8.56-3.6,8.13-8.13c-1.44-15.04,1.3-30.09-0.14-45.13c-0.41-4.22-3.45-8.34-8.13-8.13
			C1407.67,1580,1403.16,1583.41,1403.59,1587.94L1403.59,1587.94z"/>
	</g>
	<g>
		<path class="st14" d="M1390.76,1626c-37.42,6.66-74.85,13.32-112.27,19.98c-3.52,0.63-5.9,4.51-5.97,7.84
			c-0.63,31.24-0.56,62.49,0.21,93.73c0.26,10.44,16.52,10.48,16.26,0c-0.78-31.24-0.85-62.49-0.21-93.73
			c-1.99,2.61-3.98,5.23-5.97,7.84c37.42-6.66,74.85-13.32,112.27-19.98C1405.37,1639.84,1401.01,1624.18,1390.76,1626L1390.76,1626
			z"/>
	</g>
	<g>
		
			<ellipse transform="matrix(0.2298 -0.9732 0.9732 0.2298 -612.1579 2612.2957)" class="st16" cx="1344.31" cy="1692.9" rx="18.02" ry="18.02"/>
	</g>
	<g>
		
			<ellipse transform="matrix(0.2298 -0.9732 0.9732 0.2298 -551.2914 2686.9546)" class="st16" cx="1421.91" cy="1691.77" rx="18.02" ry="18.02"/>
	</g>
	<g>
		<g>
			<g>
				<path class="st6" d="M1548.16,1621.83c-8.7-1.39-16.35-6.33-23.71-11.17c-7.62-5-15.36-10.1-21.19-17.11
					c-5.83-7.01-9.56-16.33-7.78-25.27c-10.34-0.93-20.23,4.52-28.26,11.11c-8.02,6.59-14.99,14.53-23.74,20.12
					c-4.03,2.58-8.61,4.83-10.99,8.98c-2.79,4.85-1.79,10.9-0.72,16.39c2.54,12.95,5.08,25.91,7.62,38.86
					c1.56,7.96,3.34,16.36,8.84,22.32c5.14,5.56,12.68,8.08,19.89,10.39c13.78,4.41,27.71,8.86,42.13,10.05
					c14.42,1.19,29.59-1.15,41.53-9.33c12.34-8.46,20.17-22.6,22.67-37.35c1.5-8.86,2.95-24.58-1.68-32.74
					C1565.61,1614.43,1560.66,1623.82,1548.16,1621.83z"/>
			</g>
			<g>
				<path class="st7" d="M1433.45,1607.25c1.85,5.64,4.08,11.16,6.85,16.47c16.27,31.17,49.95,50.76,85.06,50.87
					c19.82,0.06,36.98-7.49,49.83-20c-0.23,1.89-0.47,3.69-0.74,5.23c-2.5,14.75-10.32,28.89-22.66,37.35
					c-11.94,8.18-27.11,10.52-41.53,9.33c-14.42-1.19-28.35-5.64-42.13-10.05c-7.21-2.31-14.76-4.83-19.89-10.39
					c-5.5-5.96-7.28-14.36-8.84-22.32c-2.54-12.95-5.08-25.91-7.62-38.86c-1.08-5.49-2.07-11.54,0.72-16.39
					C1432.75,1608.03,1433.13,1607.67,1433.45,1607.25z"/>
			</g>
			<g>
				<path class="st12" d="M1421.52,1602.66c-0.19-1.07-0.41-2.22-1.21-2.96c-0.86-0.8-2.62-9.53-3.79-9.58
					c-51.53-2.33-102.87,5.13-154.42,7.34c-12.41,0.53-26.59,9.6-38.56,12.94c-14.45,4.03-26.13,14.73-35.49,26.46
					c-6.8,8.52-12.84,18.11-14.63,28.87c-1.41,8.44-0.1,17.16,2.52,25.31c4.22,13.14,11.9,25.16,22.05,34.51
					c20.8,19.16,50.72,26.08,78.93,24.01c28.21-2.07,55.17-12.23,81.07-23.58c14.14-6.2-15.84,11.06-2.06,4.1
					c9.22-4.66,74.82-29.84,81.16-38.58c7.37-10.16-5-27.97-6.94-39.13C1427.28,1635.79,1424.4,1619.22,1421.52,1602.66z"/>
			</g>
			<g>
				<path class="st13" d="M1346.27,1699.84c24.65-6.49,49.34-18.05,65.59-38.32c7.47-9.33,12.17-19.81,14.54-30.81
					c1.25,7.22,2.51,14.44,3.76,21.66c1.94,11.16,14.31,28.97,6.94,39.13c-6.34,8.74-71.94,33.92-81.16,38.58
					c-13.78,6.96,16.2-10.3,2.06-4.1c-25.91,11.36-52.86,21.51-81.07,23.58c-28.21,2.07-58.12-4.84-78.93-24.01
					c-10.15-9.35-17.83-21.37-22.06-34.51c-0.46-1.44-0.82-2.91-1.2-4.39C1227.66,1708.63,1291.01,1714.38,1346.27,1699.84z"/>
			</g>
			<g>
				<path class="st17" d="M1527.96,1535.46c-5.49-5.02-8.64-12.56-10.76-19.53c-9.03-29.66-6.2-62.76,7.74-90.45
					c13.94-27.7,38.82-49.7,68.02-60.13c9.69-3.46,20.08-5.71,30.28-4.29c14.48,2.01,26.86,11.06,38.57,19.82
					c12.93,9.67,25.86,19.34,38.79,29.02c9.72,7.27,19.7,14.84,25.72,25.37c7.54,13.2,7.81,29.61,3.78,44.27
					c-4.03,14.66-11.98,27.9-20.29,40.63c-9.84,15.07-20.66,30.08-35.63,40.08c-24.99,16.69-57.13,16.84-87.18,16.41
					c-4.16-0.06-8.6-0.2-12.03-2.56c-4.27,12.58-10.35,24.55-18,35.41c-1.85,2.62-3.9,5.28-6.81,6.65
					c-6.78,3.19-14.38-1.84-20.17-6.6c-3.93-3.23-7.87-6.47-11.8-9.7c-5.27-4.33-10.73-8.91-13.32-15.22
					c-2.91-7.07-1.67-15.31,1.58-22.23c3.25-6.92,8.33-12.79,13.35-18.57c4.46-5.13,9.44-10.57,16.12-11.8"/>
			</g>
			<g>
				<path class="st18" d="M1666.69,1458.21c-3.67-7.98-9.29-15.05-16.95-20.26c-20.01-13.62-48.34-16.25-68.81-2.78
					c-15.51,10.21-31.84,30.57-27.04,50.4c7.7,31.84,42.67,57.84,75.75,52.85C1665.52,1533.01,1680.74,1488.77,1666.69,1458.21z"/>
			</g>
			<g>
				<path class="st17" d="M1479.08,1724.15c-0.84,1.18-1.78,2.45-3.17,2.84c-1.32,0.37-6.63,6.3-7.9,5.79
					c-9.92-4.03-17.92-10.16-27.08-15.7c-3.12-1.88-3.73-9.89-4.93-13.33c-1.91-5.49,3.01-11.44,8.64-12.86
					c5.64-1.42,11.53,0.35,17.07,2.11c7.06,2.23,17.69,4.89,22.57,10.98C1490.9,1712.24,1484.81,1716.03,1479.08,1724.15z"/>
			</g>
			<g>
				<g>
					<path class="st5" d="M1449.68,1690.07c-4.09-15.37-5.92-31.53-8.59-47.18c-2.65-15.5-4.06-32.44-9.26-47.36
						c-4.22-12.12-22.73-10.44-33.13-10.83c-22.17-0.84-44.41-0.3-66.58,0.37c-20.92,0.63-41.85,1.49-62.74,2.83
						c-30.8,1.97-61.48,7.24-82.14,32.43c-18.64,22.72-24.33,53.76-13.66,81.39c10.92,28.28,35.93,47.01,65.05,53.74
						c37.21,8.61,74.68-1.98,109.4-15.27c32.36-12.4,65.21-24.8,95.43-41.93c8.96-5.08,0.91-18.92-8.08-13.82
						c-24.98,14.15-51.79,24.88-78.5,35.26c-28.95,11.25-58.75,23.06-90.3,22.97c-26.18-0.07-54.77-9.46-70.28-31.79
						c-15.4-22.17-16.09-51.65-1.31-74.25c16.78-25.67,45.3-30.83,73.85-32.68c18.73-1.21,37.5-2.02,56.26-2.64
						c20.81-0.69,41.65-1.19,62.48-0.87c7.75,0.12,15.53,0.31,23.26,1c3.29,0.29,3.45,0.17,6.16,0.81c0.46,0.11,2.04,0.78,2.52,0.64
						c0.11-0.03-2.53-2.15-2.75-2.3c-1.21-0.84-0.38-1.22,0.12,0.81c0.33,1.34,0.7,2.67,1.01,4.01c0.84,3.6,1.56,7.24,2.26,10.87
						c1.89,9.77,3.57,19.58,5.24,29.39c2.77,16.15,4.63,32.83,8.85,48.69C1436.89,1704.27,1452.34,1700.06,1449.68,1690.07
						L1449.68,1690.07z"/>
				</g>
				<g>
					<path class="st5" d="M1571.36,1573.67c-0.21,0.72-0.45,1.42-0.71,2.12c-0.1,0.28-0.69,1.59-0.14,0.39
						c0.59-1.27-0.14,0.29-0.21,0.43c-0.77,1.69-1.64,3.33-2.55,4.95c-2.05,3.64-4.35,7.15-6.73,10.59
						c-2.59,3.75-5.3,7.41-8.06,11.03c-0.36,0.47-0.71,0.93-1.07,1.4c-0.79,1.03,1.13-1.45-0.25,0.32
						c-0.71,0.91-1.41,1.81-2.13,2.72c-1.37,1.74-2.75,3.48-4.13,5.21c-2.61,3.27-3.43,8.17,0,11.32c2.9,2.66,8.53,3.49,11.32,0
						c6.24-7.81,12.44-15.68,18.13-23.91c4.75-6.87,9.54-14.23,11.94-22.31c1.19-4.01-1.44-8.9-5.59-9.85
						C1576.9,1567.1,1572.64,1569.37,1571.36,1573.67L1571.36,1573.67z"/>
				</g>
				<g>
					<path class="st5" d="M1505.87,1583.17c4.2-6.96,8.44-13.9,12.88-20.71c2.06-3.16,4.16-6.3,6.33-9.38
						c1.07-1.51,2.15-3.01,3.26-4.49c0.24-0.31,0.47-0.63,0.71-0.94c0.6-0.79,0.09-0.2-0.2,0.25c0.48-0.76,1.15-1.46,1.73-2.15
						c2.65-3.24,3.4-8.2,0-11.32c-2.93-2.69-8.49-3.46-11.32,0c-10.33,12.63-18.79,26.73-27.21,40.67
						c-2.17,3.59-0.91,8.95,2.87,10.95C1498.8,1588.09,1503.55,1587,1505.87,1583.17L1505.87,1583.17z"/>
				</g>
				<g>
					<path class="st5" d="M1489.03,1579.28c10.77,14.26,23.49,26.75,38.65,36.32c7.65,4.83,15.88,8.79,24.42,11.81
						c3.72,1.31,7.35,2.04,10.76-0.46c1.39-1.02,2.31-2.31,3.08-3.84c0.23-0.46,1.12-1.96,1-2.5c-0.25-1.14-3.47,1.88-3.28,2.44
						c0.21,0.62,2.54,2.16,3.06,3c1,1.59,1.44,3.32,1.7,5.16c0.73,5.22-0.37,10.57-1.39,15.68c-1.73,8.75-4.09,17.56-8.4,25.43
						c-8.73,15.95-25.12,23.91-42.72,25.87c-22.09,2.46-44.5-2.89-63.67-13.9c-8.95-5.14-17.02,8.69-8.08,13.82
						c34.3,19.69,89.78,27.19,119.4-5.28c13.44-14.74,20.84-37.95,21.09-57.75c0.13-9.81-3.47-20.3-12.31-25.57
						c-3.79-2.26-8.97-3.71-13.28-2.19c-2.32,0.82-4.21,2.29-5.58,4.32c-0.51,0.76-2.86,5.13-1.15,3.36
						c1.89-0.78,3.77-1.56,5.66-2.34c-1.7,0.08-4.93-1.87-6.54-2.54c-2.89-1.21-5.71-2.63-8.48-4.11c-5.23-2.81-10.28-6-15.03-9.57
						c-9.48-7.11-17.98-15.79-25.11-25.24C1496.73,1563.07,1482.82,1571.04,1489.03,1579.28L1489.03,1579.28z"/>
				</g>
				<g>
					<path class="st5" d="M1508.19,1557.16c-14.89-6.1-32.01-0.26-44.37,8.8c-12.57,9.22-22.1,22.14-35.34,30.46
						c-8.7,5.47-0.68,19.33,8.08,13.82c12.57-7.89,21.96-19.36,33.25-28.79c9.37-7.82,22.11-13.78,34.13-8.86
						c4,1.64,8.8-1.78,9.85-5.59C1515.05,1562.42,1512.21,1558.8,1508.19,1557.16L1508.19,1557.16z"/>
				</g>
				<g>
					<path class="st5" d="M1486.9,1705.44c-3.81,5.66-7.84,11.16-12.21,16.4c-0.52,0.62-1.01,1.31-1.6,1.86
						c-0.68,0.64-0.17,0.2,0.06,0.18c0.56-0.04-2.12-0.9-2.31-0.96c-2.74-0.87-5.48-1.77-8.18-2.75
						c-9.61-3.49-19.23-8.44-23.94-17.35c-2.02-3.82-7.34-4.99-10.95-2.87c-3.87,2.26-4.9,7.12-2.87,10.95
						c7.16,13.56,21.37,20.48,35.23,25.32c3.25,1.14,6.61,2.46,10,3.09c5.6,1.04,10.7-0.39,14.59-4.62
						c5.94-6.46,11.12-13.9,16.01-21.17c2.42-3.59,0.69-8.87-2.87-10.95C1493.92,1700.27,1489.32,1701.84,1486.9,1705.44
						L1486.9,1705.44z"/>
				</g>
				<g>
					<path class="st5" d="M1531.42,1528.31c-11.85-20.96-15.7-45.68-9.87-69.15c4.29-17.26,14.14-31.1,23.99-45.49
						c10.79-15.76,23.14-31.28,40.05-40.81c17.91-10.1,37.96-9.24,56.03,0.08c11.19,5.77,21.5,13.71,31.9,20.76
						c10.59,7.19,22.09,13.94,31.31,22.89c14.5,14.07,21.43,32.83,17.64,52.9c-3.6,19.04-13.58,35.6-24.38,51.37
						c-11.03,16.12-21.86,31.17-39.18,41.25c-21.18,12.33-46.44,15.58-70.15,9.69c-10.15-2.53-14.48,13.15-4.32,15.68
						c24.12,6,49.27,4,72.06-5.97c20.53-8.98,36.19-24.05,48.71-42.34c23.01-33.61,48.45-75.37,25.46-115.83
						c-9.11-16.04-23.77-26.57-38.67-36.69c-10.85-7.37-21.6-14.91-32.57-22.1c-19.59-12.83-43.43-19.52-66.39-12.48
						c-23.32,7.15-41.16,25.29-55.25,44.45c-11.79,16.03-23.97,32.87-30.09,51.97c-9.39,29.28-5.35,61.41,9.7,88.04
						C1522.53,1545.63,1536.58,1537.44,1531.42,1528.31L1531.42,1528.31z"/>
				</g>
				<g>
					<path class="st5" d="M1547.92,1461.4c-13.13,20.1-2.63,43.55,12.33,59.19c15.32,16.01,37.58,28.82,60.05,30.09
						c11.03,0.62,22.81-2.7,30.02-11.5c2.78-3.39,3.32-8.17,0-11.49c-2.87-2.87-8.7-3.41-11.49,0c-0.56,0.69-1.14,1.35-1.77,1.98
						c-0.37,0.37-2.23,1.9-0.82,0.85c-0.69,0.51-1.41,0.98-2.15,1.41c-0.52,0.3-3.34,1.52-1.57,0.85c-1.68,0.63-3.39,1.04-5.14,1.43
						c-0.35,0.08-1.59,0.24,0.12,0.02c-0.46,0.06-0.93,0.11-1.4,0.14c-1.08,0.06-2.15,0.13-3.23,0.13c-4.98,0-6.58-0.31-11.63-1.62
						c-4.46-1.16-8.76-2.76-12.07-4.32c-9.13-4.27-16.99-9.52-23.98-16.05c-1.71-1.6-3.37-3.27-4.95-5.01
						c-0.77-0.85-1.53-1.72-2.27-2.61c-1.11-1.33-1.04-1.27-1.59-2.03c-1.28-1.78-2.49-3.6-3.58-5.5c-0.6-1.03-1.16-2.09-1.68-3.16
						c-0.23-0.47-0.45-0.94-0.67-1.42c-0.37-0.82,0.29,0.82-0.22-0.55c-0.84-2.23-1.44-4.48-1.94-6.81
						c-0.05-0.24-0.26-1.76-0.13-0.72c0.14,1.1-0.06-0.86-0.07-1.07c-0.05-1.2-0.06-2.38-0.01-3.58c0.02-0.47,0.07-0.95,0.12-1.42
						c-0.13,1.19-0.09,0.42,0.09-0.32c0.25-1.06,0.51-2.1,0.81-3.15c0.13-0.47,0.31-0.93,0.49-1.39c-0.58,1.53,0.31-0.66,0.39-0.8
						c0.61-1.16,1.26-2.27,1.97-3.37C1567.7,1460.82,1553.63,1452.67,1547.92,1461.4L1547.92,1461.4z"/>
				</g>
			</g>
		</g>
		<g>
			<g>
				<path class="st6" d="M1263.55,1613.7c8.74-1.1,16.55-5.79,24.07-10.38c7.78-4.74,15.69-9.59,21.74-16.4
					c6.05-6.81,10.09-16.01,8.61-25c10.37-0.59,20.07,5.18,27.87,12.04c7.8,6.86,14.5,15.02,23.06,20.9
					c3.94,2.71,8.45,5.11,10.69,9.34c2.62,4.94,1.43,10.95,0.17,16.41c-2.97,12.86-5.93,25.72-8.9,38.59
					c-1.82,7.9-3.88,16.24-9.57,22.01c-5.32,5.39-12.94,7.66-20.23,9.73c-13.92,3.96-27.99,7.94-42.44,8.65
					c-14.45,0.71-29.54-2.13-41.2-10.7c-12.06-8.86-19.41-23.25-21.42-38.08c-1.21-8.9-2.13-24.66,2.76-32.67
					C1246.35,1605.73,1250.99,1615.28,1263.55,1613.7z"/>
			</g>
			<g>
				<path class="st7" d="M1378.68,1602.93c-2.04,5.58-4.45,11.02-7.39,16.24c-17.29,30.61-51.61,49.08-86.7,48.03
					c-19.81-0.59-36.72-8.71-49.14-21.64c0.16,1.89,0.35,3.7,0.56,5.26c2.01,14.82,9.36,29.21,21.42,38.08
					c11.66,8.57,26.75,11.41,41.2,10.7c14.45-0.71,28.52-4.69,42.44-8.65c7.28-2.07,14.91-4.34,20.23-9.73
					c5.7-5.77,7.75-14.11,9.57-22.01c2.97-12.86,5.93-25.72,8.9-38.59c1.26-5.45,2.45-11.46-0.17-16.41
					C1379.34,1603.73,1378.98,1603.35,1378.68,1602.93z"/>
			</g>
			<g>
				<path class="st12" d="M1390.75,1598.73c0.22-1.06,0.49-2.2,1.31-2.92c0.89-0.77,2.94-9.43,4.11-9.45
					c51.58-0.62,102.64,8.53,154.09,12.44c12.39,0.94,26.26,10.48,38.11,14.21c14.31,4.5,25.63,15.59,34.6,27.62
					c6.52,8.75,12.23,18.52,13.66,29.34c1.13,8.48-0.47,17.15-3.35,25.21c-4.66,12.99-12.73,24.75-23.18,33.76
					c-21.43,18.46-51.55,24.39-79.68,21.38c-28.13-3-54.73-14.05-80.25-26.25c-13.93-6.66,15.46,11.58,1.92,4.17
					c-9.06-4.96-73.79-32.3-79.84-41.24c-7.03-10.4,5.92-27.79,8.23-38.88C1383.9,1631.65,1387.32,1615.19,1390.75,1598.73z"/>
			</g>
			<g>
				<path class="st13" d="M1462.75,1698.35c-24.43-7.3-48.72-19.67-64.28-40.47c-7.16-9.57-11.51-20.2-13.52-31.28
					c-1.49,7.17-2.98,14.35-4.48,21.52c-2.31,11.09-15.26,28.48-8.23,38.88c6.05,8.94,70.78,36.28,79.84,41.24
					c13.54,7.41-15.85-10.83-1.92-4.17c25.52,12.21,52.12,23.25,80.25,26.25c28.12,3,58.25-2.92,79.68-21.38
					c10.46-9.01,18.53-20.76,23.19-33.76c0.51-1.42,0.92-2.89,1.34-4.34C1581,1711.06,1517.49,1714.71,1462.75,1698.35z"/>
			</g>
			<g>
				<path class="st17" d="M1270.36,1536.43c2.12-1.46,4.33-2.91,6.82-3.57c7.15-1.89,14.26,3.17,19.15,8.73
					c4.54,5.16,8.28,11.04,11.03,17.34c1.83,4.19,3.24,8.88,2.03,13.29c-5.01,18.24-36.94,45.76-52.78,32.23
					c-5.49-4.69-17.59-30.37-17.74-37.55C1238.66,1555.72,1261.85,1542.29,1270.36,1536.43z"/>
			</g>
			<g>
				<path class="st19" d="M1329.21,1718.25c0.8,1.21,1.7,2.5,3.08,2.95c1.3,0.42,6.42,6.52,7.7,6.04
					c10.04-3.7,18.25-9.56,27.59-14.79c3.18-1.78,4.06-9.76,5.37-13.16c2.09-5.42-2.63-11.53-8.21-13.14
					c-5.59-1.6-11.53-0.03-17.13,1.54c-7.13,2-17.84,4.31-22.92,10.23C1317.79,1705.96,1323.75,1709.94,1329.21,1718.25z"/>
			</g>
			<g>
				<g>
					<path class="st5" d="M1375.08,1689.67c8.79-29.08,11.4-59.88,19.51-89.18c0.29-1.06,0.63-2.1,0.92-3.15
						c0.51-1.88,0.74-0.84,0.14-0.62c1.31-0.48-3.51,2.23-3.08,2.35c0.52,0.15,2.06-0.51,2.66-0.64c3.46-0.72,11.82-0.85,17.38-0.9
						c19.67-0.17,39.37,0.87,59,2.02c20.13,1.18,40.25,2.64,60.34,4.42c24.59,2.17,51.84,3.5,71.16,20.79
						c19.9,17.81,27.45,45.12,19.1,70.55c-8.75,26.67-33.16,42.38-59.86,47.06c-34.52,6.05-69.01-6.8-100.29-20.03
						c-29.97-12.68-60.26-25.49-88.09-42.5c-8.82-5.39-16.87,8.46-8.08,13.82c27.21,16.62,56.78,29.22,86.07,41.64
						c30.89,13.09,63.22,25.85,97.4,24.42c29.34-1.23,58.88-12.85,76.6-37.11c17.51-23.98,20.45-56.33,7.89-83.12
						c-13.07-27.91-39.63-43.25-69.23-47.91c-22.05-3.47-44.58-4.76-66.83-6.34c-23.23-1.66-46.5-3.08-69.78-3.59
						c-8.91-0.2-17.87-0.33-26.77,0.2c-5.02,0.3-11.48,0.28-15.95,3.03c-5.1,3.14-6.12,11-7.43,16.32
						c-2.43,9.9-4.48,19.9-6.54,29.87c-3.73,18.01-6.36,36.69-11.69,54.32C1356.65,1695.3,1372.1,1699.53,1375.08,1689.67
						L1375.08,1689.67z"/>
				</g>
				<g>
					<path class="st5" d="M1267.67,1606.22c-6.81-9.14-13.62-18.36-19.45-28.18c-2.21-3.73-4.46-7.63-5.74-11.48
						c-0.62-1.88-0.36-2.5-0.34-0.27c0.01,0.96,0,2.08-0.69,2.76c0.48-0.47,2.1-3.04,0.68-1.28c8.63-10.7,22.1-20.63,33.96-25.28
						c1.88-0.74,3.81-1.37,5.78-1.82c0.52-0.12,2.69-0.42,1.13-0.27c0.8-0.08,1.59-0.08,2.39-0.11c4.08-0.15,7.79-1.54,9.08-5.9
						c0.47-1.59,0.46-3.28-0.01-4.88c-0.16-0.54-1.95-4.52-0.87-1.65c-0.27,2.06-0.54,4.11-0.81,6.17c0.03-0.05,0.05-0.11,0.08-0.16
						c-3.01,1.23-6.03,2.45-9.04,3.68c-0.92-0.14-1.55-1.61-0.9-0.3c0.31,0.63,0.93,1.24,1.34,1.81c1.06,1.45,2.09,2.93,3.1,4.42
						c2.35,3.48,4.6,7.03,6.78,10.61c4.54,7.43,8.83,15.01,13.09,22.61c5.04,8.99,18.87,0.93,13.82-8.08
						c-4.92-8.79-9.89-17.57-15.25-26.11c-2.36-3.76-4.79-7.48-7.39-11.07c-2.56-3.54-5.61-8.6-10.35-9.33
						c-3.38-0.52-7.32,0.3-9.04,3.68c-1.05,2.07-1.47,4.2-0.83,6.49c0.16,0.55,1.72,4.62,0.92,1.87c0-1.42,0-2.84,0-4.26
						c-0.03,0.08-0.06,0.17-0.1,0.25c1.86-1.86,3.73-3.73,5.59-5.59c1.57-0.27,0.8-0.27-0.24-0.25c-1.05,0.02-2.11,0.19-3.15,0.33
						c-2,0.27-3.95,0.64-5.88,1.22c-4.1,1.23-8.08,3.01-11.87,4.98c-7.78,4.06-14.98,9.28-21.7,14.9
						c-4.89,4.09-10.06,8.65-13.48,14.1c-4.59,7.32,0.12,15.46,3.77,22.19c6.18,11.41,14.05,21.91,21.79,32.29
						c2.58,3.46,6.93,5.23,10.95,2.87C1268.21,1615.18,1270.27,1609.71,1267.67,1606.22L1267.67,1606.22z"/>
				</g>
				<g>
					<path class="st5" d="M1311.61,1563.2c-7.68,9.51-16.41,18.25-26.42,25.31c-4.86,3.43-9.95,6.52-15.26,9.21
						c-2.49,1.26-5.03,2.44-7.62,3.48c-2.06,0.82-6.32,3.18-8.58,3c1.89,0.78,3.77,1.56,5.66,2.34c1.14,2.33,1.38,2.57,0.74,0.71
						c-0.31-1.07-0.71-2.11-1.2-3.12c-0.96-1.84-2.33-3.53-4.17-4.57c-4.16-2.36-9.56-1.56-13.69,0.4
						c-9.07,4.31-13.64,13.92-14.34,23.56c-0.77,10.64,1.78,22.58,4.73,32.79c2.86,9.88,7.24,19.3,13.84,27.23
						c28.45,34.18,84.65,28.39,119.87,9.69c9.1-4.83,1.02-18.66-8.08-13.82c-17.17,9.12-36.38,13.49-55.83,12.44
						c-16.72-0.9-34.83-6.53-45.25-20.45c-5.16-6.9-8.14-15.07-10.19-23.36c-2.08-8.42-5.52-20.62-2.01-28.97
						c0.59-1.4,2.16-2.49,2.66-3.75c0.77-1.97,2.53,1.34-0.33-2.3c-2.58-3.29-1.2-1.29-1.11-0.32c0.32,3.64,4.34,6.83,7.62,7.36
						c7.25,1.17,17.1-4.52,23.47-7.59c18.21-8.81,34.12-22.27,46.8-37.95C1329.35,1566.58,1318.09,1555.18,1311.61,1563.2
						L1311.61,1563.2z"/>
				</g>
				<g>
					<path class="st5" d="M1309.63,1565.89c12.18-4.52,24.7,2.17,33.75,10.24c10.99,9.81,20,21.5,32.32,29.82
						c3.58,2.42,8.87,0.69,10.95-2.87c2.31-3.94,0.72-8.53-2.87-10.95c-12.84-8.67-21.74-21.91-33.97-31.35
						c-12.35-9.53-29.02-16.05-44.44-10.33c-4.05,1.5-6.81,5.42-5.59,9.85C1300.85,1564.2,1305.56,1567.41,1309.63,1565.89
						L1309.63,1565.89z"/>
				</g>
				<g>
					<path class="st5" d="M1241.53,1543.97c-71.42,17.24-144.9-39.36-166.3-105.76c-6.33-19.65-9.92-42.69,0.73-61.54
						c9.81-17.36,28.26-23.53,46.89-17c18.98,6.65,31.15,24.14,39.58,41.49c3.65,7.51,7.71,16.02,7.29,24.61
						c-0.51,10.32-9.68,9.66-17.22,5.61c-15.99-8.57-26.04-26.51-31.55-43.2c-5.76-17.47-7.69-38.13,2.43-54.42
						c8.72-14.04,25.24-20.06,41.21-19.44c17.42,0.68,32.94,9.88,43.28,23.73c10.53,14.1,16.43,32.47,16.6,50.05
						c0.03,3.48-1.23,15.73-6.53,14.27c-3.26-0.9-6.84-6.75-8.78-9.3c-3.18-4.18-5.97-8.67-8.43-13.31
						c-8.4-15.86-13.38-35.89-9.83-53.79c3.42-17.2,15.39-31.25,34.33-25.77c18.66,5.41,32.33,22.91,41.92,38.84
						c10.32,17.14,18.51,36.48,23.48,55.87c9.12,35.57,6.51,76.52-8.63,110.16c-3.18,7.06-7.01,13.8-11.53,20.08
						c-6.03,8.38,7.86,16.38,13.82,8.08c26.14-36.34,32.04-87.47,24.36-130.6c-4.31-24.18-14.17-48.53-26.52-69.7
						c-11.86-20.34-29.12-41.41-52.66-48.17c-22.62-6.5-42.93,5.64-51.14,26.97c-8.23,21.35-4.41,46.43,4.28,66.99
						c6.33,14.97,25.1,51.02,46.09,37.01c17.77-11.87,12-41.49,6.64-58.25c-6.73-21.04-20.45-41.03-40.47-51.32
						c-18.67-9.59-41.45-10.58-60.66-2.02c-46.74,20.82-38.37,83.83-13.81,118.6c11.03,15.61,38.69,39.87,57.78,21.76
						c16.41-15.56,3.08-42.8-5.66-58.61c-11.66-21.1-30.06-39.81-54.69-44.04c-23.64-4.07-45.66,7.33-56.7,28.55
						c-12.24,23.53-8.63,51.56-0.13,75.71c7.38,20.96,19.07,40.1,33.52,56.92c29.32,34.15,72.25,59.26,118.01,60.17
						c11.18,0.22,22.38-1.18,33.24-3.8C1255.8,1556.99,1251.56,1541.55,1241.53,1543.97L1241.53,1543.97z"/>
				</g>
				<g>
					<path class="st5" d="M1308.05,1707.14c4.74,7.56,9.78,15.82,15.94,22.32c6.85,7.22,16.31,3.85,24.45,1.27
						c13.92-4.4,27.96-10.98,35.5-24.17c5.12-8.96-8.71-17.03-13.82-8.08c-2.36,4.13-5.49,7.17-9.58,9.72
						c-5,3.12-9.09,4.71-14.61,6.53c-2.6,0.85-5.22,1.63-7.84,2.38c-0.21,0.06-3.36,0.83-3.36,0.88c0.01-0.31,1.64,1.74,0.9,0.45
						c-0.34-0.59-1.01-1.13-1.45-1.68c-4.48-5.61-8.49-11.64-12.3-17.72C1316.42,1690.35,1302.56,1698.38,1308.05,1707.14
						L1308.05,1707.14z"/>
				</g>
			</g>
		</g>
	</g>
	<g>
		<path class="st12" d="M1955.17,1196.09c46.02-23,92.04-46,138.05-69c9.36-4.68,1.14-18.71-8.2-14.04c-46.02,23-92.04,46-138.05,69
			C1937.61,1186.73,1945.83,1200.76,1955.17,1196.09L1955.17,1196.09z"/>
	</g>
	<g>
		<path class="st12" d="M1990.93,1294.27c15.69-3.14,31.37-6.27,47.06-9.41c4.18-0.84,6.96-6.03,5.68-10
			c-1.44-4.44-5.52-6.57-10-5.68c-15.69,3.14-31.37,6.27-47.06,9.41c-4.18,0.84-6.96,6.03-5.68,10
			C1982.37,1293.03,1986.46,1295.17,1990.93,1294.27L1990.93,1294.27z"/>
	</g>
	<g>
		<path class="st12" d="M1930.14,1576.64c52.89,15.97,105.21,33.75,156.87,53.34c9.79,3.71,14.03-12,4.32-15.68
			c-51.66-19.58-103.98-37.37-156.87-53.34C1924.42,1557.93,1920.13,1573.62,1930.14,1576.64L1930.14,1576.64z"/>
	</g>
	<g>
		<path class="st12" d="M770.6,1152.79c-47.12-15.5-94.24-31.01-141.36-46.51c-9.96-3.28-14.23,12.42-4.32,15.68
			c47.12,15.5,94.24,31.01,141.36,46.51C776.24,1171.74,780.51,1156.05,770.6,1152.79L770.6,1152.79z"/>
	</g>
	<g>
		<path class="st5" d="M1365.13,1737.71c28.3,3.09,57.03,0.57,85.27-1.98c4.37-0.4,8.13-3.45,8.13-8.13c0-4.09-3.73-8.53-8.13-8.13
			c-28.24,2.55-56.97,5.08-85.27,1.98c-4.37-0.48-8.13,4.08-8.13,8.13C1357,1734.38,1360.75,1737.23,1365.13,1737.71
			L1365.13,1737.71z"/>
	</g>
	<g>
		<rect x="871.27" y="2048.98" class="st20" width="65.5" height="25.08"/>
	</g>
	<path class="st8" d="M2134.15,1730.65c17.99,58.8,36.01,117.61,54.09,176.42c17.16,58.97,34.31,117.94,51.41,176.94
		c-554.93,108.52-1133.95,108.49-1688.88-0.04c35.2-117.78,70.38-235.6,105.55-353.37
		C1141.9,1825.58,1648.55,1825.6,2134.15,1730.65z"/>
	<g>
		<path class="st12" d="M823.52,1831.48c10.87,1.69,15.35,8.63,13.46,20.82c-3.9,25.11-12.62,55.6-26.16,91.46
			c-13.54,35.86-24.69,57.65-33.43,65.38c-8.74,7.73-17.88,11.6-27.4,11.6c-12.44-1.93-18.95-35.65-19.54-101.15
			c-3.24-26.1-3.55-42.47-0.91-49.11c2.64-6.64,8.93-9.96,18.89-9.96c9.95,0,15.14,10.02,15.55,30.05
			c0.41,20.04,0.41,49.74-0.02,89.12c24.01-64.65,37.51-106.57,40.49-125.77l0.56-3.62
			C807.21,1836.19,813.38,1829.91,823.52,1831.48z"/>
		<path class="st12" d="M897.91,1861.65c15.56-0.8,22.92,9.62,22.08,31.25c-0.84,21.63-20.24,49.62-58.23,83.97l-4.01,5.4
			l-0.23,1.82c-2.31,10.42,2.04,17.19,13.03,20.31c10.99,3.12,20.16,3.92,27.5,2.38c7.34-1.53,13.57-4.59,18.71-9.17
			c5.14-4.58,9.27-4.86,12.39-0.83c3.12,4.03,4.45,7.86,3.99,11.5c-0.63,4.97-5.84,10.38-15.64,16.21
			c-9.79,5.84-23.94,8.85-42.44,9.02c-18.5,0.18-31.3-6.16-38.42-19.01c-7.12-12.85-10.89-19.49-11.33-19.91
			c-4.37,3.39-8.09,2.64-11.17-2.25c-3.08-4.88-2.72-9.58,1.05-14.09c3.77-4.51,6.67-7.93,8.69-10.26c2.02-2.33,3.16-4.52,3.42-6.59
			c3.23-32.23,11.91-56.71,26.04-73.46C867.5,1871.22,882.35,1862.45,897.91,1861.65z M878.99,1922.62
			c6.36-9.35,10.15-16.91,11.37-22.67c1.22-5.76-1.99-6.16-9.64-1.22c-8.09,5.5-17.27,23.98-27.54,55.44
			C864.03,1942.49,872.63,1931.98,878.99,1922.62z"/>
		<path class="st12" d="M1015.13,1890.62c19.34,1.89,28.53,7.64,27.6,17.24l2.7,17.57l-0.23,2.37c-1.07,5.91-3.95,9.68-8.65,11.31
			c0.01-0.12-4.32,14.06-13,42.56l-0.68,6.93c-0.81,8.27-3.41,16.67-7.8,25.2c19.23-20.96,32.14-31.11,38.7-30.47
			c7.48,3.8,10.91,8.92,10.28,15.37c-0.56,5.72-10.57,17.69-30.03,35.92c-7.5,7.62-11.35,12.52-11.56,14.71
			c-1.38,27.98-2.78,49.14-4.18,63.49l-0.87,8.94c-3.37,34.54-14.52,56.28-33.44,65.24c-3.39,2-6.85,2.83-10.37,2.49
			c-17.03-1.66-26.17-17.97-27.45-48.9l0.57-5.84c2.09-21.4,16.41-52.97,42.95-94.69l3.14-15.16
			c-18.51,13.54-33.97,19.7-46.37,18.49c-19.56-4.61-28.48-15.73-26.76-33.37l0.09-0.91c7.53-34.37,20.84-63.15,39.92-86.33
			C978.78,1899.59,997.26,1888.88,1015.13,1890.62z M954.77,2001.48c-1.53,15.69,10.72,5.9,36.75-29.37
			c4.48-5.7,10.24-21.89,17.27-48.58c-7.18-0.7-16.8,5.45-28.87,18.45C967.84,1954.97,959.46,1974.81,954.77,2001.48z
			 M975.63,2144.11c0.64,7.24,1.34,11.46,2.08,12.63c0.73,0.07,3.82-5.8,9.27-17.6c5.45-11.8,8.32-33.65,8.61-65.54
			c-5.77,15.03-10.7,28.72-14.79,41.09C976.72,2127.06,974.99,2136.87,975.63,2144.11z"/>
		<path class="st12" d="M1187.97,2036.27c4.89-1.83,8.73-3.41,11.51-4.77c2.78-1.35,6.43-0.96,10.94,1.17
			c4.51,2.13,6.63,5.36,6.36,9.68c-0.28,4.33-3.1,8.71-8.47,13.14c-5.37,4.43-15.13,6.86-29.3,7.3
			c-14.17,0.43-25.44-7.64-33.79-24.22c-2.52-4.69-4.64-8.75-6.38-12.16c-10.1,10.37-21.79,18.92-35.08,25.66
			c-9.53,3.55-18.17,4.52-25.9,2.92c-15.59-3.21-23.46-16.88-23.62-41.01l1.07-5.26c5.5-26.58,15.36-50.25,29.55-71.01
			c6.2-10.74,16.52-22.75,30.97-36.02c13.42-10.64,27.8-14.31,43.13-11c13.41,2.82,20.05,11.39,19.92,25.71
			c-0.13,14.32-1.79,29.15-4.98,44.49c-5.45,27.57-7.31,45.54-5.58,53.91c1.72,8.38,4.21,14.5,7.45,18.38
			C1179.01,2037.07,1183.08,2038.1,1187.97,2036.27z M1143.3,1922.93c-4.89,1.77-11.6,6.14-20.13,13.12
			c-8.53,6.98-17.54,20.91-27.03,41.79c-9.49,20.88-12.37,35.72-8.65,44.53l5.24,1.26c2.18,0.39,4.8-0.36,7.86-2.25
			c3.06-1.88,9.08-6.91,18.05-15.09c8.97-8.17,14.9-18.9,17.78-32.19C1139.3,1960.81,1141.59,1943.75,1143.3,1922.93z"/>
		<path class="st12" d="M1256,1889.63c10.99,0.32,16.29,7.2,15.89,20.64l-12.16,33.19c-6.02,17.79-11.19,33.47-15.51,47.03
			l20.99-40.27c9.12-14.89,16.58-27.56,22.39-38.03c5.81-10.47,13.68-13.23,23.62-8.29c9.94,4.94,13.89,29.56,11.85,73.87
			c-0.2,10.75,1.1,22.59,3.9,35.5c1.71,4.33,5.31,6.57,10.8,6.74c6.72,0.2,12.93-1.27,18.65-4.4c5.71-3.13,10.42,0.03,14.11,9.49
			c3.69,9.46-1.27,17.04-14.88,22.75c-9.89,3.74-18.07,5.52-24.54,5.33c-19.3-0.57-31.15-8.9-35.57-24.98
			c-4.42-16.08-5.18-33.58-2.3-52.51c2.88-18.92-0.79-18.82-11.01,0.32l-40.22,70.51c-4.22,6.48-10.03,12.54-17.4,18.19l-5.13-0.15
			c-7.45-0.22-12.24-7.63-14.38-22.24c10.43-59.34,20.46-101.16,30.1-125.44C1239.66,1898.44,1246.59,1889.35,1256,1889.63z"/>
		<path class="st12" d="M1519.81,1890.42c17.15,1.94,25.86,8.72,26.11,20.32c-1.78,7.98-6.52,12.06-14.21,12.23l-12.13-1.2
			l-4.95,0.11c-5.86,0.13-13.94,5.26-24.22,15.39c-3.6,8.76-5.37,14.3-5.31,16.62l0.05,2.02c0.05,2.32,5.71,7.02,16.99,14.1
			c12,6.46,17.87,9.69,17.63,9.69c24.33-27.3,41.04-40.9,50.15-40.8c9.11,0.1,12.42,4.83,9.94,14.17
			c-2.48,9.34-8.13,17.72-16.95,25.12c-8.82,7.41-14.95,13.53-18.38,18.37c8.35,12.77,10.59,25.77,6.73,38.99
			c-3.86,13.22-9.77,23.68-17.73,31.37c-7.96,7.69-18.51,12.66-31.66,14.91l-6.04,0.68c-17.02-1.58-25.69-9.58-26.01-23.99
			c0.5-15.9,10.69-33.36,30.55-52.37l-8.93-5.85c-15.16-5.65-26.93-15.78-35.32-30.38l-2.85-12.77
			c-0.33-14.78,7.83-30.06,24.47-45.82C1488.81,1897.77,1502.83,1890.8,1519.81,1890.42z M1519.46,2044.14
			c5.68-5.69,8.44-10.79,8.28-15.31c-0.16-4.52-0.85-6.79-2.08-6.83c-1.22-0.03-5.14,2.44-11.75,7.41
			c-6.61,4.98-10.55,12.06-11.81,21.25C1507.99,2052,1513.78,2049.83,1519.46,2044.14z"/>
		<path class="st12" d="M1699.75,1880.92l0.37-0.02c8.66-0.47,15.99,18.53,22,56.99c2.06,8.7,3.29,24.63,3.7,47.8
			c0.4,23.17-3.7,40.12-12.29,50.87c-8.59,10.75-16.37,16.31-23.32,16.68c-14.27,0.78-28.42-10.76-42.44-34.59l-3.84-9.89
			c0.22,4.03-2.38,12.55-7.79,25.57c-9.5,21.07-21.48,30.9-35.94,29.48c-14.46-1.42-22.75-9.29-24.87-23.61
			c-2.13-14.32-3.51-27.46-4.16-39.42c-0.57-1.56-2.32-17.98-5.24-49.27l-3.99-26.21c1.1-11.19,6.29-17.04,15.57-17.55
			c14.27-0.77,22.3,15.13,24.06,47.7c0.14,47.71,1.6,72.32,4.38,73.82c2.77,1.5,5.59-5.2,8.45-20.1c2.86-14.9,4.34-42.79,4.45-83.66
			c1.93-11.73,6.86-17.81,14.8-18.24c11.83-0.64,20.44,13.7,25.83,43.02c6.89,25.57,12.19,42.53,15.89,50.9
			c3.69,8.37,7.96,12.6,12.8,12.7c4.84,0.1,6.6-13.02,5.3-39.38l-0.04-0.73c-1.04-19.15-3.82-42.13-8.33-68.93
			C1684.25,1889.47,1689.14,1881.49,1699.75,1880.92z"/>
		<path class="st12" d="M1788.07,1875.85c15.04-4.06,24.43,4.58,28.17,25.9c3.74,21.32-9.34,52.77-39.23,94.35l-2.78,6.13l0.16,1.83
			c-0.06,10.68,5.61,16.38,17.02,17.11c11.4,0.74,20.53-0.42,27.39-3.46c6.85-3.04,12.3-7.35,16.36-12.91
			c4.06-5.56,8.04-6.7,11.94-3.42c3.9,3.28,6.01,6.75,6.32,10.4c0.43,4.99-3.53,11.37-11.87,19.14
			c-8.34,7.77-21.54,13.69-39.58,17.76c-18.04,4.07-31.9,0.57-41.56-10.49c-9.66-11.06-14.75-16.76-15.27-17.08
			c-3.56,4.23-7.36,4.28-11.39,0.15c-4.04-4.13-4.68-8.8-1.94-14c2.74-5.2,4.85-9.16,6.33-11.86c1.48-2.7,2.14-5.09,1.96-7.16
			c-3.63-32.19-0.3-57.95,9.98-77.3C1760.36,1891.61,1773.03,1879.91,1788.07,1875.85z M1782.42,1939.44
			c4.25-10.48,6.36-18.67,6.34-24.55c-0.02-5.88-3.24-5.61-9.68,0.84c-6.75,7.08-11.83,27.08-15.25,59.99
			C1771.98,1962.02,1778.18,1949.92,1782.42,1939.44z"/>
		<path class="st12" d="M1887.1,1865.74c14.93-4.42,24.53,3.98,28.79,25.21c4.26,21.23-8.05,52.98-36.93,95.28l-2.63,6.19l0.2,1.82
			c0.2,10.67,6.01,16.24,17.43,16.69c11.42,0.46,20.52-0.92,27.29-4.13c6.77-3.21,12.12-7.64,16.04-13.3
			c3.92-5.66,7.87-6.89,11.85-3.71c3.98,3.19,6.17,6.6,6.57,10.24c0.55,4.98-3.25,11.46-11.4,19.43
			c-8.15,7.97-21.2,14.21-39.14,18.72c-17.94,4.51-31.87,1.35-41.8-9.47c-9.93-10.82-15.16-16.39-15.68-16.7
			c-3.46,4.32-7.25,4.46-11.38,0.43c-4.13-4.03-4.89-8.68-2.28-13.95c2.61-5.27,4.63-9.27,6.05-12.01c1.42-2.74,2.01-5.14,1.78-7.2
			c-4.42-32.09-1.72-57.92,8.1-77.51C1859.79,1882.17,1872.16,1870.17,1887.1,1865.74z M1883,1929.45
			c3.99-10.58,5.91-18.82,5.75-24.7c-0.16-5.88-3.38-5.53-9.65,1.07c-6.57,7.25-11.17,27.36-13.78,60.35
			C1873.12,1952.27,1879.01,1940.03,1883,1929.45z"/>
		<path class="st12" d="M1975.52,1812.61c6.99-12.86,14.43-18.9,22.3-18.13c7.88,0.77,12.53,6.42,13.98,16.96
			c1.19,8.72-1.65,14.04-8.54,15.97c-5.59,6.93-8.88,19.84-9.86,38.72l10.09-6.01c8.61-3.77,15.33-5.99,20.18-6.65
			c9.21-0.27,12.8,4.14,10.78,13.23c-2.02,9.1-16.31,19.78-42.87,32.05c-0.36,0.05-0.57,1.25-0.62,3.6
			c-0.84,19.11-0.03,37.83,2.42,56.18c2.45,18.35,6.11,29.78,10.99,34.29c4.87,4.51,9.97,5.48,15.29,2.9
			c5.32-2.58,9.71-6.08,13.18-10.5c3.46-4.42,7.92-7,13.37-7.75c5.45-0.75,8.77,3.24,9.96,11.95c0,6.29-2.94,13.66-8.81,22.11
			c-11.02,11.38-23.48,17.65-37.38,18.81s-24.52-3.64-31.85-14.41c-7.33-10.77-12.61-24.26-15.81-40.47
			c-3.21-16.21-4.59-38.89-4.15-68.06c-25.96,5.9-40.04,3.45-42.26-7.34c-2.22-10.8,11.88-18.15,42.3-22.07l4.16-24.99
			C1964.14,1838.93,1968.52,1825.47,1975.52,1812.61z"/>
	</g>
</g>
</svg>
